<svg viewBox="0 0 1200 800" fill="none" xmlns="http://www.w3.org/2000/svg"><g clip-path="url(#clip0)"><path fill="#fff" d="M0 0h1200v800H0z"></path><path fill="#F9F2E7" d="M-1 0h1200v800H-1z"></path><path d="M1017 231.5H150m867 168H150M1017 569H150" stroke="#778F9B" stroke-width="1.5" stroke-linejoin="round" stroke-dasharray="1.5 9"></path><path fill="#D8D8D8" d="M1133 219h-100v23h100zm0 169h-100v23h100zm0 170h-100v23h100z"></path><path fill-rule="evenodd" clip-rule="evenodd" d="M874.475 95.787v617.724c0 8.192-6.646 14.833-14.843 14.833H337.467c-8.195 0-14.843-6.641-14.843-14.833V95.787c0-8.191 6.646-14.832 14.843-14.832h522.165c8.196 0 14.843 6.64 14.843 14.832z" fill="#D2D2D2"></path><path fill-rule="evenodd" clip-rule="evenodd" d="M417.29 698.679h435.809v11.386H417.29v-11.386zm0-18.322h435.809v11.386H417.29v-11.386zm0-17.45h435.809v11.386H417.29v-11.386zm-73.726-561.885h509.535v11.343H343.564v-11.343z" fill="#A3A3A3"></path><path fill-rule="evenodd" clip-rule="evenodd" d="M349.519 132.467H847.58c.78 0 1.552.153 2.273.451a5.952 5.952 0 013.213 3.213c.299.72.453 1.492.453 2.272v498.005a5.937 5.937 0 01-5.937 5.937H349.518a5.937 5.937 0 01-5.938-5.937V138.403a5.936 5.936 0 015.938-5.936h.001z" fill="#FDDFE1"></path><path d="M343.346 159.479h510.407v477.69a5.454 5.454 0 01-5.453 5.453H348.799a5.454 5.454 0 01-5.453-5.453v-477.69z" fill="#EFFFBD"></path><path d="M343.346 468.124h510.407v169.045a5.453 5.453 0 01-5.453 5.453H348.799a5.453 5.453 0 01-5.453-5.453V468.124z" fill="#66E8FF"></path><path d="M343.346 588.092h510.407v45.806a8.724 8.724 0 01-8.725 8.725H352.071a8.729 8.729 0 01-8.725-8.725v-45.806z" fill="#00A8C6"></path><path d="M322.624 159.479l551.851 1.091" stroke="#000" stroke-width="11.997" stroke-dasharray="32.72 32.72"></path><path d="M252 326.669h233.943v191.274H252V326.669zm0-213.344h233.943v191.274H252V113.325zm693 213.344H711.057v191.274H945V326.669zm0-213.344H711.057v191.274H945V113.325zM503.599 70.656V304.6h191.274V70.656H503.599zm0 489.956V326.669h191.274v233.943H503.599z" fill="#FBBC04" opacity=".8"></path><path d="M257.682 505.531a2.494 2.494 0 001.77 3.051l21.693 5.764a2.494 2.494 0 001.28-4.821l-19.282-5.123 5.123-19.283a2.493 2.493 0 10-4.82-1.28l-5.764 21.692zm97.531-57.427l-96.372 55.91 2.503 4.315 96.372-55.911-2.503-4.314zm584.105 57.427a2.494 2.494 0 01-1.77 3.051l-21.693 5.764a2.494 2.494 0 01-1.28-4.821l19.282-5.123-5.123-19.283a2.493 2.493 0 114.82-1.28l5.764 21.692zm-97.531-57.427l96.372 55.91-2.503 4.315-96.372-55.911 2.503-4.314zM257.682 122.978a2.494 2.494 0 011.77-3.051l21.693-5.764a2.494 2.494 0 011.28 4.821l-19.282 5.123 5.123 19.282a2.493 2.493 0 11-4.82 1.281l-5.764-21.692zm97.531 57.427l-96.372-55.911 2.503-4.314 96.372 55.911-2.503 4.314zm584.105-57.427a2.494 2.494 0 00-1.77-3.051l-21.693-5.764a2.494 2.494 0 00-1.28 4.821l19.282 5.123-5.123 19.282a2.493 2.493 0 104.82 1.281l5.764-21.692zm-97.531 57.427l96.372-55.911-2.503-4.314-96.372 55.911 2.503 4.314zM603.371 73.76a2.494 2.494 0 00-3.527 0l-15.872 15.872a2.494 2.494 0 103.527 3.527l14.108-14.108 14.108 14.108a2.494 2.494 0 103.527-3.527L603.371 73.76zm.73 107.247V75.524h-4.988v105.483h4.988zm-.73 376.5a2.494 2.494 0 01-3.527 0l-15.872-15.871a2.494 2.494 0 113.527-3.527l14.108 14.108 14.108-14.108a2.494 2.494 0 113.527 3.527l-15.871 15.871zm.73-107.246v105.483h-4.988V450.261h4.988z" fill="#000"></path><path fill="#8FBE00" d="M537.44 326h122.121v122.121H537.44zm173.617 0h122.121v122.121H711.057zM363.822 183h122.121v122.121H363.822zm173.618 0h122.121v122.121H537.44zm173.617 0h122.121v122.121H711.057zM363.822 326h122.121v122.121H363.822z"></path><path d="M369.519 651.003a4.638 4.638 0 00-1.787.474l-24.194 11.536a4.589 4.589 0 00-2.495 3.109l-5.924 25.9a4.463 4.463 0 00.65 3.531c.084.126.171.247.262.365l16.716 20.781a4.626 4.626 0 003.608 1.702h26.811a4.686 4.686 0 003.611-1.721l16.708-20.787a4.466 4.466 0 00.868-3.877l-5.961-25.919a4.598 4.598 0 00-2.495-3.108l-24.157-11.511a4.64 4.64 0 00-2.243-.474l.022-.001z" fill="#4A4A4A"></path><path d="M369.74 659.828a1.53 1.53 0 00-1.421 1.607v.406c.038.464.109.922.199 1.375.133.868.182 1.749.144 2.628a1.579 1.579 0 01-.474.748l-.032.613c-.879.073-1.753.207-2.612.402a18.59 18.59 0 00-9.452 5.395l-.521-.369a1.118 1.118 0 01-.858-.087 13.473 13.473 0 01-1.947-1.758 11.92 11.92 0 00-.949-1.01l-.321-.255a1.742 1.742 0 00-1.003-.38 1.398 1.398 0 00-1.153.511 1.533 1.533 0 00.354 2.134l.3.239c.386.258.786.491 1.198.701.774.428 1.5.937 2.167 1.518.172.247.272.536.288.835l.475.434a18.707 18.707 0 00-2.949 13.037l-.609.174a1.99 1.99 0 01-.619.623c-.848.227-1.716.371-2.592.43a12.2 12.2 0 00-1.39.108l-.385.087h-.041a1.46 1.46 0 00-1.175.97 1.458 1.458 0 00.335 1.487c.386.39.962.529 1.484.358h.027l.394-.044c.441-.132.874-.29 1.297-.474a13.496 13.496 0 012.522-.736c.299.017.587.119.829.292l.651-.108a18.808 18.808 0 008.338 10.426l-.266.553c.122.255.167.537.13.816a14.002 14.002 0 01-1.309 2.371c-.281.37-.541.756-.777 1.156l-.184.391a1.454 1.454 0 001.409 2.173 1.453 1.453 0 001.202-.938l.18-.369c.165-.434.304-.877.418-1.323.383-.949.592-1.967 1.117-2.596a1.17 1.17 0 01.621-.305l.325-.593a18.713 18.713 0 0013.343.033l.289.554c.295.045.56.205.737.445.408.777.739 1.59.99 2.431.115.45.258.893.422 1.326l.18.37a1.458 1.458 0 001.201.931 1.457 1.457 0 001.375-.646c.298-.461.312-1.05.035-1.523l-.19-.39a12.09 12.09 0 00-.775-1.153 15.403 15.403 0 01-1.302-2.295 1.132 1.132 0 01.147-.868 4.869 4.869 0 01-.242-.583 18.822 18.822 0 008.3-10.463l.616.108c.221-.201.512-.308.81-.299.861.165 1.706.434 2.522.737.424.195.858.361 1.299.5.104.028.258.052.373.08h.028a1.451 1.451 0 001.482-.361 1.453 1.453 0 00.344-1.486 1.455 1.455 0 00-1.179-.968l-.42-.099c-.462-.063-.927-.1-1.393-.109-.876-.056-1.744-.2-2.592-.428a1.643 1.643 0 01-.624-.625l-.587-.174a18.773 18.773 0 00-3.009-13.008l.512-.474c-.02-.299.077-.593.271-.821a13.655 13.655 0 012.148-1.51c.413-.21.813-.445 1.198-.701l.318-.258a1.452 1.452 0 00-.688-2.69 1.459 1.459 0 00-1.113.432l-.321.257c-.335.318-.652.655-.949 1.009a13.505 13.505 0 01-1.894 1.786 1.623 1.623 0 01-.877.095l-.549.393a18.964 18.964 0 00-12.016-5.797c0-.217-.027-.543-.033-.644a1.14 1.14 0 01-.474-.722c-.03-.876.025-1.752.165-2.618.095-.456.159-.912.201-1.374v-.434a1.529 1.529 0 00-1.424-1.607l-.019-.011-.001-.001zm-1.81 11.212l-.434 7.584h-.032a1.31 1.31 0 01-.722 1.094 1.223 1.223 0 01-1.301-.118l-6.22-4.406a14.895 14.895 0 017.172-3.905 15.533 15.533 0 011.533-.248h.004v-.001zm3.62 0a15.057 15.057 0 018.663 4.176l-6.161 4.379a1.277 1.277 0 01-1.87-.307 1.278 1.278 0 01-.201-.674l-.43-7.573-.001-.001zm-14.588 7.006l5.689 5.075v.033a1.272 1.272 0 01.402 1.245 1.272 1.272 0 01-.904.945v.022l-7.299 2.099a14.889 14.889 0 012.115-9.423l-.003.004zm25.515 0a15.163 15.163 0 012.176 9.393l-7.31-2.106v-.028a1.263 1.263 0 01-.906-.945 1.284 1.284 0 01.404-1.247l5.644-5.049-.008-.018zm-13.902 5.471h2.327l1.423 1.806-.518 2.257-2.09 1.003-2.095-1.003-.493-2.257 1.446-1.806v0zm7.454 6.16c.097-.011.196-.011.293 0l7.527 1.269a14.794 14.794 0 01-6.023 7.583l-2.91-7.042a1.277 1.277 0 01.525-1.599c.176-.105.375-.166.58-.178l.008-.033zm-12.641.033a1.279 1.279 0 011.251 1.165 1.27 1.27 0 01-.098.609v.028l-2.891 6.986a14.943 14.943 0 01-5.988-7.504l7.462-1.265a1.18 1.18 0 01.252 0l.014-.019h-.002zm6.304 3.037c.484-.014.936.244 1.166.669h.028l3.678 6.637-1.47.433c-2.706.619-5.53.474-8.157-.42l3.69-6.636a1.279 1.279 0 011.084-.641l-.019-.041v-.001z" fill="#fff" stroke="#fff" stroke-width=".678"></path><circle cx="152.619" cy="115.619" r="45.619" fill="#688A00"></circle><path d="M159.644 133.462V95.605h-9.464l-9.316 5.693v8.725l8.281-4.954h.222v28.393h10.277z" fill="#fff"></path><circle cx="251.619" cy="597.619" r="45.619" fill="#688A00"></circle><path d="M266.464 615.462v-8.208h-14.788v-.221l3.549-2.958c8.632-7.191 10.832-10.925 10.832-15.306 0-7.061-5.786-11.682-14.862-11.682-8.817 0-14.547 4.898-14.529 12.865h9.76c-.018-3.179 1.923-4.954 4.769-4.954 2.828 0 4.843 1.757 4.843 4.659 0 2.68-1.719 4.418-4.51 6.728l-14.122 11.683v7.394h29.058z" fill="#fff"></path></g></svg>