<?xml version="1.0" encoding="UTF-8"?><svg xmlns="http://www.w3.org/2000/svg" xmlns:xlink="http://www.w3.org/1999/xlink" fill-opacity="1" color-rendering="auto" color-interpolation="auto" text-rendering="auto" stroke="black" stroke-linecap="square" width="816" stroke-miterlimit="10" shape-rendering="auto" stroke-opacity="1" fill="black" stroke-dasharray="none" font-weight="normal" stroke-width="1" height="482" font-family="'Dialog'" font-style="normal" stroke-linejoin="miter" font-size="12px" stroke-dashoffset="0" image-rendering="auto">
  <!--Generated by ySVG 2.5-->
  <defs id="genericDefs"/>
  <g>
    <g fill="white" text-rendering="geometricPrecision" shape-rendering="geometricPrecision" transform="translate(-286,-74)" stroke="white">
      <rect x="286" width="816" height="482" y="74" clip-path="url(#clipPath2)" stroke="none"/>
    </g>
    <g fill="rgb(60,103,155)" text-rendering="geometricPrecision" shape-rendering="geometricPrecision" transform="matrix(1,0,0,1,-286,-74)" stroke="rgb(60,103,155)">
      <path d="M382.4633 237.8 L382.4633 259.8 L987.6633 259.8 L987.6633 237.8 ZM971.6633 241.8 L983.6633 241.8 L983.6633 253.8 L971.6633 253.8 Z" stroke="none" clip-path="url(#clipPath2)"/>
      <path fill="rgb(104,176,227)" d="M987.6633 239.8 L962.6633 239.8 Q960.6633 239.8 958.6633 243.55 L954.6633 251.05 Q952.6633 254.8 950.6633 254.8 L382.4633 254.8 L382.4633 370.2 L987.6633 370.2 Z" clip-path="url(#clipPath2)" stroke="none"/>
    </g>
    <g stroke-linecap="butt" transform="matrix(1,0,0,1,-286,-74)" fill="white" text-rendering="geometricPrecision" font-family="sans-serif" shape-rendering="geometricPrecision" stroke="white" stroke-miterlimit="1.45">
      <text x="384.4633" xml:space="preserve" y="251.8645" clip-path="url(#clipPath2)" stroke="none">High-level observability track</text>
    </g>
    <g fill="rgb(60,103,155)" text-rendering="geometricPrecision" shape-rendering="geometricPrecision" transform="matrix(1,0,0,1,-286,-74)" stroke="rgb(60,103,155)">
      <path d="M303.8 74.92 L303.8 96.92 L1101.3234 96.92 L1101.3234 74.92 ZM1085.3234 78.92 L1097.3234 78.92 L1097.3234 90.92 L1085.3234 90.92 Z" stroke="none" clip-path="url(#clipPath2)"/>
      <path fill="rgb(104,176,227)" d="M1101.3234 76.92 L1076.3234 76.92 Q1074.3234 76.92 1072.3234 80.67 L1068.3234 88.17 Q1066.3234 91.92 1064.3234 91.92 L303.8 91.92 L303.8 186.72 L1101.3234 186.72 Z" clip-path="url(#clipPath2)" stroke="none"/>
    </g>
    <g stroke-linecap="butt" transform="matrix(1,0,0,1,-286,-74)" fill="white" text-rendering="geometricPrecision" font-family="sans-serif" shape-rendering="geometricPrecision" stroke="white" stroke-miterlimit="1.45">
      <text x="305.8" xml:space="preserve" y="88.9845" clip-path="url(#clipPath2)" stroke="none">Technical track</text>
    </g>
    <g fill="rgb(60,103,155)" text-rendering="geometricPrecision" shape-rendering="geometricPrecision" transform="matrix(1,0,0,1,-286,-74)" stroke="rgb(60,103,155)">
      <path d="M495.2 434.2 L495.2 456.2 L819.1173 456.2 L819.1173 434.2 ZM803.1173 438.2 L815.1173 438.2 L815.1173 450.2 L803.1173 450.2 Z" stroke="none" clip-path="url(#clipPath2)"/>
      <path fill="rgb(104,176,227)" d="M819.1173 436.2 L794.1173 436.2 Q792.1173 436.2 790.1173 439.95 L786.1173 447.45 Q784.1173 451.2 782.1173 451.2 L495.2 451.2 L495.2 538.6 L819.1173 538.6 Z" clip-path="url(#clipPath2)" stroke="none"/>
    </g>
    <g stroke-linecap="butt" transform="matrix(1,0,0,1,-286,-74)" fill="white" text-rendering="geometricPrecision" font-family="sans-serif" shape-rendering="geometricPrecision" stroke="white" stroke-miterlimit="1.45">
      <text x="497.2" xml:space="preserve" y="448.2645" clip-path="url(#clipPath2)" stroke="none">Kubernetes track</text>
    </g>
    <g fill="silver" text-rendering="geometricPrecision" shape-rendering="geometricPrecision" transform="matrix(1,0,0,1,-286,-74)" stroke="silver">
      <circle r="26.2" clip-path="url(#clipPath2)" cx="312.7644" cy="242.92" stroke="none"/>
    </g>
    <g text-rendering="geometricPrecision" stroke-miterlimit="1.45" shape-rendering="geometricPrecision" transform="matrix(1,0,0,1,-286,-74)" stroke-linecap="butt">
      <circle fill="none" r="26.2" clip-path="url(#clipPath2)" cx="312.7644" cy="242.92"/>
      <text x="300.0935" xml:space="preserve" y="247.6339" clip-path="url(#clipPath2)" font-family="sans-serif" stroke="none">Start</text>
    </g>
    <g fill="silver" text-rendering="geometricPrecision" shape-rendering="geometricPrecision" transform="matrix(1,0,0,1,-286,-74)" stroke="silver">
      <path d="M328.1644 106.5131 L448.6953 106.5131 L462.0876 137.9131 L448.6953 169.3131 L328.1644 169.3131 L341.5567 137.9131 Z" fill-rule="evenodd" clip-path="url(#clipPath2)" stroke="none"/>
    </g>
    <g text-rendering="geometricPrecision" stroke-miterlimit="1.45" shape-rendering="geometricPrecision" transform="matrix(1,0,0,1,-286,-74)" stroke-linecap="butt">
      <path fill="none" d="M328.1644 106.5131 L448.6953 106.5131 L462.0876 137.9131 L448.6953 169.3131 L328.1644 169.3131 L341.5567 137.9131 Z" fill-rule="evenodd" clip-path="url(#clipPath2)"/>
      <text x="369.2764" font-size="10px" y="122.5668" clip-path="url(#clipPath2)" font-family="sans-serif" stroke="none" xml:space="preserve">Understand</text>
      <text x="346.2124" font-size="10px" y="134.8178" clip-path="url(#clipPath2)" font-family="sans-serif" stroke="none" xml:space="preserve">high-level architecture</text>
      <text x="365.3824" font-size="10px" y="147.0688" clip-path="url(#clipPath2)" font-family="sans-serif" stroke="none" xml:space="preserve">and data flow</text>
    </g>
    <g text-rendering="geometricPrecision" shape-rendering="geometricPrecision" transform="matrix(0.1163,0,0,0.1163,62.0271,76.5535)">
      <g clip-path="url(#clipPath3)">
        <svg xmlns:svg="http://www.w3.org/2000/svg" xmlns:sodipodi="http://sodipodi.sourceforge.net/DTD/sodipodi-0.dtd" xmlns:inkscape="http://www.inkscape.org/namespaces/inkscape" xmlns:dc="http://purl.org/dc/elements/1.1/" xmlns:cc="http://creativecommons.org/ns#" xmlns:rdf="http://www.w3.org/1999/02/22-rdf-syntax-ns#" xml:space="preserve" opacity="1" writing-mode="lr-tb" stop-color="rgb(0, 0, 0)" shape-rendering="auto" glyph-orientation-horizontal="0deg" color-profile="auto" lighting-color="rgb(255, 255, 255)" color="rgb(0, 0, 0)" font-weight="400" alignment-baseline="auto" font-style="normal" version="1.1" color-interpolation-filters="linearrgb" text-anchor="start" stroke-linecap="butt" color-interpolation="srgb" font-variant="normal" word-spacing="normal" fill-opacity="1" text-rendering="auto" clip-path="none" text-decoration="none" letter-spacing="normal" viewBox="0 0 115.333 114" glyph-orientation-vertical="auto" display="inline" font-size-adjust="none" overflow="visible" fill="rgb(0, 0, 0)" font-stretch="normal" stroke-dasharray="none" inkscape:version="0.92.1 r15371" id="svg1.Layer_1" stroke-miterlimit="4" stop-opacity="1" color-rendering="auto" font-size="12" pointer-events="visiblepainted" mask="none" direction="ltr" baseline-shift="baseline" sodipodi:docname="prometheus_logo_orange.svg" enable-background="new 0 0 115.333 114" fill-rule="nonzero" image-rendering="auto" stroke-dashoffset="0" marker-end="none" width="115.333px" clip="auto" cursor="auto" stroke="none" filter="none" visibility="visible" kerning="auto" stroke-width="1" font-family="&quot;Arial&quot;,&quot;Helvetica&quot;,sans-serif" flood-opacity="1" clip-rule="nonzero" src="none" height="114px" unicode-bidi="normal" stroke-linejoin="miter" stroke-opacity="1" flood-color="rgb(0, 0, 0)" dominant-baseline="auto" marker-start="none" marker-mid="none" x="0px" y="0px"><metadata id="svg1.metadata4495"/><defs id="svg1.defs4493"><clipPath clipPathUnits="userSpaceOnUse" id="clipPath1"><path d="M0 0 L816 0 L816 482 L0 482 L0 0 Z"/></clipPath><clipPath clipPathUnits="userSpaceOnUse" id="clipPath2"><path d="M286 74 L1102 74 L1102 556 L286 556 L286 74 Z"/></clipPath><clipPath clipPathUnits="userSpaceOnUse" id="clipPath3"><path d="M-533.4745 -658.412 L6484.6748 -658.412 L6484.6748 3487.1125 L-533.4745 3487.1125 L-533.4745 -658.412 Z"/></clipPath><clipPath clipPathUnits="userSpaceOnUse" id="clipPath4"><path d="M935.9716 454.445 L935.9716 472.5388 L982.3486 472.5388 L982.3486 454.445 Z"/></clipPath><clipPath clipPathUnits="userSpaceOnUse" id="clipPath5"><path d="M-4064.6006 -2477.1113 L950.2059 -2477.1113 L950.2059 485.066 L-4064.6006 485.066 L-4064.6006 -2477.1113 Z"/></clipPath><clipPath clipPathUnits="userSpaceOnUse" id="clipPath6"><path d="M-4203.9478 -2725.8884 L982.7818 -2725.8884 L982.7818 337.8413 L-4203.9478 337.8413 L-4203.9478 -2725.8884 Z"/></clipPath><clipPath clipPathUnits="userSpaceOnUse" id="clipPath7"><path d="M-6229.7534 -4269.749 L1442.5214 -4269.749 L1442.5214 262.1584 L-6229.7534 262.1584 L-6229.7534 -4269.749 Z"/></clipPath><clipPath clipPathUnits="userSpaceOnUse" id="clipPath8"><path d="M-685.2158 -661.6743 L6367.6724 -661.6743 L6367.6724 3504.3699 L-685.2158 3504.3699 L-685.2158 -661.6743 Z"/></clipPath><clipPath clipPathUnits="userSpaceOnUse" id="clipPath9"><path d="M-1158.0903 -919.7114 L8638.0068 -919.7114 L8638.0068 4866.709 L-1158.0903 4866.709 L-1158.0903 -919.7114 Z"/></clipPath><clipPath clipPathUnits="userSpaceOnUse" id="clipPath10"><path d="M-1668.1456 -658.1329 L5350.0039 -658.1329 L5350.0039 3487.3916 L-1668.1456 3487.3916 L-1668.1456 -658.1329 Z"/></clipPath><clipPath clipPathUnits="userSpaceOnUse" id="clipPath11"><path d="M-2721.8196 -658.412 L4296.3301 -658.412 L4296.3301 3487.1125 L-2721.8196 3487.1125 L-2721.8196 -658.412 Z"/></clipPath><clipPath clipPathUnits="userSpaceOnUse" id="clipPath12"><path d="M-2884.3926 -661.6743 L4168.4951 -661.6743 L4168.4951 3504.3699 L-2884.3926 3504.3699 L-2884.3926 -661.6743 Z"/></clipPath><clipPath clipPathUnits="userSpaceOnUse" id="clipPath13"><path d="M-4212.6338 -919.7114 L5583.4639 -919.7114 L5583.4639 4866.709 L-4212.6338 4866.709 L-4212.6338 -919.7114 Z"/></clipPath><clipPath clipPathUnits="userSpaceOnUse" id="clipPath14"><path d="M-3958.0334 -658.1329 L3060.116 -658.1329 L3060.116 3487.3916 L-3958.0334 3487.3916 L-3958.0334 -658.1329 Z"/></clipPath><clipPath clipPathUnits="userSpaceOnUse" id="clipPath15"><path d="M-6442.5142 -919.7114 L3353.5833 -919.7114 L3353.5833 4866.709 L-6442.5142 4866.709 L-6442.5142 -919.7114 Z"/></clipPath><clipPath clipPathUnits="userSpaceOnUse" id="clipPath16"><path d="M-5820.1709 -658.412 L1197.9788 -658.412 L1197.9788 3487.1125 L-5820.1709 3487.1125 L-5820.1709 -658.412 Z"/></clipPath><clipPath clipPathUnits="userSpaceOnUse" id="clipPath17"><path d="M-5998.0801 -661.6743 L1054.8077 -661.6743 L1054.8077 3504.3699 L-5998.0801 3504.3699 L-5998.0801 -661.6743 Z"/></clipPath></defs><g id="svg1.Layer_2"/><path d="M 56.667,0.667 C 25.372,0.667 0,26.036 0,57.332 c 0,31.295 25.372,56.666 56.667,56.666 31.295,0 56.666,-25.371 56.666,-56.666 0,-31.296 -25.372,-56.665 -56.666,-56.665 z m 0,106.055 c -8.904,0 -16.123,-5.948 -16.123,-13.283 H 72.79 c 0,7.334 -7.219,13.283 -16.123,13.283 z M 83.297,89.04 H 30.034 V 79.382 H 83.298 V 89.04 Z M 83.106,74.411 H 30.186 C 30.01,74.208 29.83,74.008 29.66,73.802 24.208,67.182 22.924,63.726 21.677,60.204 c -0.021,-0.116 6.611,1.355 11.314,2.413 0,0 2.42,0.56 5.958,1.205 -3.397,-3.982 -5.414,-9.044 -5.414,-14.218 0,-11.359 8.712,-21.285 5.569,-29.308 3.059,0.249 6.331,6.456 6.552,16.161 3.252,-4.494 4.613,-12.701 4.613,-17.733 0,-5.21 3.433,-11.262 6.867,-11.469 -3.061,5.045 0.793,9.37 4.219,20.099 1.285,4.03 1.121,10.812 2.113,15.113 C 63.797,33.534 65.333,20.5 71,16 c -2.5,5.667 0.37,12.758 2.333,16.167 3.167,5.5 5.087,9.667 5.087,17.548 0,5.284 -1.951,10.259 -5.242,14.148 3.742,-0.702 6.326,-1.335 6.326,-1.335 l 12.152,-2.371 c 10e-4,-10e-4 -1.765,7.261 -8.55,14.254 z" id="svg1.path4486" inkscape:connector-curvature="0" style="fill:#e6522c;fill-opacity:1"/></svg>
      </g>
    </g>
    <g text-rendering="geometricPrecision" stroke-miterlimit="1.45" shape-rendering="geometricPrecision" transform="matrix(1,0,0,1,-286,-74)" stroke-linecap="butt">
      <rect fill="none" x="929.9716" width="146.8" height="107.3965" y="448.445" clip-path="url(#clipPath2)"/>
      <path stroke-miterlimit="10" d="M938.3466 466.5095 L938.3466 457.9157 L939.4872 457.9157 L939.4872 465.4938 L943.7216 465.4938 L943.7216 466.5095 L938.3466 466.5095 ZM949.1923 464.5095 L950.2861 464.6345 Q950.0361 465.5876 949.3329 466.1188 Q948.6298 466.6501 947.5517 466.6501 Q946.1923 466.6501 945.3798 465.8063 Q944.5829 464.9626 944.5829 463.447 Q944.5829 461.8845 945.3954 461.0251 Q946.2079 460.1501 947.4892 460.1501 Q948.7392 460.1501 949.5204 460.9938 Q950.3173 461.8376 950.3173 463.3845 Q950.3173 463.4782 950.3173 463.6657 L945.6767 463.6657 Q945.7392 464.697 946.2548 465.2438 Q946.7704 465.7751 947.5517 465.7751 Q948.1298 465.7751 948.5361 465.4782 Q948.9579 465.1657 949.1923 464.5095 ZM945.7392 462.8063 L949.2079 462.8063 Q949.1454 462.0095 948.8173 461.6188 Q948.3017 461.0095 947.5048 461.0095 Q946.7704 461.0095 946.2704 461.4938 Q945.7861 461.9782 945.7392 462.8063 ZM951.413 467.0251 L952.4443 467.1813 Q952.5068 467.6501 952.8036 467.8688 Q953.1943 468.1657 953.8661 468.1657 Q954.6005 468.1657 954.9911 467.8688 Q955.3974 467.572 955.538 467.0563 Q955.6318 466.7282 955.6161 465.697 Q954.9286 466.5095 953.8974 466.5095 Q952.6161 466.5095 951.913 465.5876 Q951.2099 464.6501 951.2099 463.3688 Q951.2099 462.4782 951.5224 461.7282 Q951.8505 460.9626 952.4599 460.5563 Q953.0693 460.1501 953.8974 460.1501 Q955.0068 460.1501 955.7255 461.0407 L955.7255 460.2907 L956.6943 460.2907 L956.6943 465.6657 Q956.6943 467.1188 956.3974 467.7282 Q956.1005 468.3376 955.4599 468.6813 Q954.8193 469.0407 953.8818 469.0407 Q952.7724 469.0407 952.0849 468.5407 Q951.3974 468.0407 951.413 467.0251 ZM952.288 463.2907 Q952.288 464.5095 952.7724 465.072 Q953.2568 465.6345 953.9911 465.6345 Q954.7255 465.6345 955.2099 465.072 Q955.7099 464.5095 955.7099 463.322 Q955.7099 462.1813 955.1943 461.6032 Q954.6943 461.0251 953.9755 461.0251 Q953.2724 461.0251 952.7724 461.6032 Q952.288 462.1657 952.288 463.2907 ZM962.54 464.5095 L963.6337 464.6345 Q963.3837 465.5876 962.6806 466.1188 Q961.9775 466.6501 960.8994 466.6501 Q959.54 466.6501 958.7275 465.8063 Q957.9306 464.9626 957.9306 463.447 Q957.9306 461.8845 958.7431 461.0251 Q959.5556 460.1501 960.8369 460.1501 Q962.0869 460.1501 962.8681 460.9938 Q963.665 461.8376 963.665 463.3845 Q963.665 463.4782 963.665 463.6657 L959.0244 463.6657 Q959.0869 464.697 959.6025 465.2438 Q960.1181 465.7751 960.8994 465.7751 Q961.4775 465.7751 961.8837 465.4782 Q962.3056 465.1657 962.54 464.5095 ZM959.0869 462.8063 L962.5556 462.8063 Q962.4931 462.0095 962.165 461.6188 Q961.6494 461.0095 960.8525 461.0095 Q960.1181 461.0095 959.6181 461.4938 Q959.1337 461.9782 959.0869 462.8063 ZM964.9638 466.5095 L964.9638 460.2907 L965.9013 460.2907 L965.9013 461.1657 Q966.5888 460.1501 967.8857 460.1501 Q968.4482 460.1501 968.9169 460.3532 Q969.4013 460.5563 969.6357 460.8845 Q969.8701 461.2126 969.9638 461.6501 Q970.0107 461.947 970.0107 462.6813 L970.0107 466.5095 L968.9638 466.5095 L968.9638 462.7282 Q968.9638 462.072 968.8388 461.7595 Q968.7138 461.447 968.4013 461.2595 Q968.0888 461.0563 967.6669 461.0563 Q966.9951 461.0563 966.4951 461.4938 Q966.0107 461.9157 966.0107 463.1032 L966.0107 466.5095 L964.9638 466.5095 ZM975.6689 466.5095 L975.6689 465.7282 Q975.0751 466.6501 973.9345 466.6501 Q973.1845 466.6501 972.5595 466.2438 Q971.9345 465.822 971.5908 465.0876 Q971.247 464.3532 971.247 463.4001 Q971.247 462.4782 971.5595 461.7126 Q971.872 460.947 972.497 460.5563 Q973.122 460.1501 973.8876 460.1501 Q974.4501 460.1501 974.8876 460.3845 Q975.3251 460.6188 975.6064 460.9938 L975.6064 457.9157 L976.6533 457.9157 L976.6533 466.5095 L975.6689 466.5095 ZM972.3408 463.4001 Q972.3408 464.6032 972.8408 465.197 Q973.3408 465.7751 974.0283 465.7751 Q974.7158 465.7751 975.2001 465.2126 Q975.6845 464.6501 975.6845 463.4938 Q975.6845 462.2126 975.1845 461.6188 Q974.7001 461.0251 973.9814 461.0251 Q973.2783 461.0251 972.8095 461.6032 Q972.3408 462.1657 972.3408 463.4001 ZM978.5927 461.4938 L978.5927 460.2907 L979.7958 460.2907 L979.7958 461.4938 L978.5927 461.4938 ZM978.5927 466.5095 L978.5927 465.3063 L979.7958 465.3063 L979.7958 466.5095 L978.5927 466.5095 Z" clip-path="url(#clipPath4)" stroke-linecap="square" stroke="none"/>
    </g>
    <g text-rendering="geometricPrecision" shape-rendering="geometricPrecision" transform="matrix(0.1627,0,0,0.1627,661.3843,403.071)">
      <g clip-path="url(#clipPath5)">
        <svg xmlns:svg="http://www.w3.org/2000/svg" xmlns:sodipodi="http://sodipodi.sourceforge.net/DTD/sodipodi-0.dtd" xmlns:inkscape="http://www.inkscape.org/namespaces/inkscape" xmlns:dc="http://purl.org/dc/elements/1.1/" xmlns:cc="http://creativecommons.org/ns#" xmlns:rdf="http://www.w3.org/1999/02/22-rdf-syntax-ns#" xml:space="preserve" opacity="1" writing-mode="lr-tb" stop-color="rgb(0, 0, 0)" shape-rendering="auto" glyph-orientation-horizontal="0deg" color-profile="auto" lighting-color="rgb(255, 255, 255)" color="rgb(0, 0, 0)" font-weight="400" alignment-baseline="auto" font-style="normal" version="1.1" color-interpolation-filters="linearrgb" text-anchor="start" stroke-linecap="butt" color-interpolation="srgb" font-variant="normal" word-spacing="normal" fill-opacity="1" text-rendering="auto" clip-path="none" text-decoration="none" letter-spacing="normal" viewBox="0 0 115.333 114" glyph-orientation-vertical="auto" display="inline" font-size-adjust="none" overflow="visible" fill="rgb(0, 0, 0)" font-stretch="normal" stroke-dasharray="none" inkscape:version="1.0 (4035a4fb49, 2020-05-01)" id="svg2.Layer_1" stroke-miterlimit="4" stop-opacity="1" color-rendering="auto" font-size="12" pointer-events="visiblepainted" mask="none" direction="ltr" baseline-shift="baseline" sodipodi:docname="Alert_Manager_logo.svg" enable-background="new 0 0 115.333 114" fill-rule="nonzero" image-rendering="auto" stroke-dashoffset="0" marker-end="none" width="115.333px" clip="auto" cursor="auto" stroke="none" filter="none" visibility="visible" kerning="auto" stroke-width="1" font-family="&quot;Arial&quot;,&quot;Helvetica&quot;,sans-serif" flood-opacity="1" clip-rule="nonzero" src="none" height="114px" unicode-bidi="normal" stroke-linejoin="miter" stroke-opacity="1" flood-color="rgb(0, 0, 0)" dominant-baseline="auto" marker-start="none" marker-mid="none" x="0px" y="0px"><metadata id="svg2.metadata4495"/><defs id="svg2.defs4493"/><g id="svg2.Layer_2"/><path d="M 56.667,0.667 C 25.372,0.667 0,26.036 0,57.332 c 0,31.295 25.372,56.666 56.667,56.666 31.295,0 56.666,-25.371 56.666,-56.666 0,-31.296 -25.372,-56.665 -56.666,-56.665 z m 0,106.055 c -8.904,0 -16.123,-5.948 -16.123,-13.283 H 72.79 c 0,7.334 -7.219,13.283 -16.123,13.283 z M 83.297,89.04 H 30.034 V 79.382 H 83.298 V 89.04 Z M 83.106,74.411 H 30.186 C 30.01,74.208 29.83,74.008 29.66,73.802 24.208,67.182 22.924,63.726 21.677,60.204 c -0.021,-0.116 6.611,1.355 11.314,2.413 0,0 2.42,0.56 5.958,1.205 -3.397,-3.982 -5.414,-9.044 -5.414,-14.218 0,-11.359 8.712,-21.285 5.569,-29.308 3.059,0.249 6.331,6.456 6.552,16.161 3.252,-4.494 4.613,-12.701 4.613,-17.733 0,-5.21 3.433,-11.262 6.867,-11.469 -3.061,5.045 0.793,9.37 4.219,20.099 1.285,4.03 1.121,10.812 2.113,15.113 C 63.797,33.534 65.333,20.5 71,16 c -2.5,5.667 0.37,12.758 2.333,16.167 3.167,5.5 5.087,9.667 5.087,17.548 0,5.284 -1.951,10.259 -5.242,14.148 3.742,-0.702 6.326,-1.335 6.326,-1.335 l 12.152,-2.371 c 10e-4,-10e-4 -1.765,7.261 -8.55,14.254 z" id="svg2.path4486" inkscape:connector-curvature="0" style="fill:#000039;fill-opacity:1"/></svg>
      </g>
    </g>
    <g text-rendering="geometricPrecision" stroke-miterlimit="1.45" shape-rendering="geometricPrecision" font-family="sans-serif" transform="matrix(1,0,0,1,-286,-74)" stroke-linecap="butt">
      <text x="971.8256" xml:space="preserve" y="491.1139" clip-path="url(#clipPath2)" stroke="none">Alertmanager</text>
    </g>
    <g text-rendering="geometricPrecision" shape-rendering="geometricPrecision" transform="matrix(0.1573,0,0,0.1573,661.3843,428.8493)">
      <g clip-path="url(#clipPath6)">
        <svg xmlns:svg="http://www.w3.org/2000/svg" xmlns:sodipodi="http://sodipodi.sourceforge.net/DTD/sodipodi-0.dtd" xmlns:inkscape="http://www.inkscape.org/namespaces/inkscape" xmlns:dc="http://purl.org/dc/elements/1.1/" xmlns:cc="http://creativecommons.org/ns#" xmlns:rdf="http://www.w3.org/1999/02/22-rdf-syntax-ns#" xml:space="preserve" opacity="1" writing-mode="lr-tb" stop-color="rgb(0, 0, 0)" shape-rendering="auto" glyph-orientation-horizontal="0deg" color-profile="auto" lighting-color="rgb(255, 255, 255)" color="rgb(0, 0, 0)" font-weight="400" alignment-baseline="auto" font-style="normal" version="1.1" color-interpolation-filters="linearrgb" text-anchor="start" stroke-linecap="butt" color-interpolation="srgb" font-variant="normal" word-spacing="normal" fill-opacity="1" text-rendering="auto" clip-path="none" text-decoration="none" letter-spacing="normal" viewBox="0 0 115.333 114" glyph-orientation-vertical="auto" display="inline" font-size-adjust="none" overflow="visible" fill="rgb(0, 0, 0)" font-stretch="normal" stroke-dasharray="none" inkscape:version="0.92.1 r15371" id="svg3.Layer_1" stroke-miterlimit="4" stop-opacity="1" color-rendering="auto" font-size="12" pointer-events="visiblepainted" mask="none" direction="ltr" baseline-shift="baseline" sodipodi:docname="prometheus_logo_orange.svg" enable-background="new 0 0 115.333 114" fill-rule="nonzero" image-rendering="auto" stroke-dashoffset="0" marker-end="none" width="115.333px" clip="auto" cursor="auto" stroke="none" filter="none" visibility="visible" kerning="auto" stroke-width="1" font-family="&quot;Arial&quot;,&quot;Helvetica&quot;,sans-serif" flood-opacity="1" clip-rule="nonzero" src="none" height="114px" unicode-bidi="normal" stroke-linejoin="miter" stroke-opacity="1" flood-color="rgb(0, 0, 0)" dominant-baseline="auto" marker-start="none" marker-mid="none" x="0px" y="0px"><metadata id="svg3.metadata4495"/><defs id="svg3.defs4493"/><g id="svg3.Layer_2"/><path d="M 56.667,0.667 C 25.372,0.667 0,26.036 0,57.332 c 0,31.295 25.372,56.666 56.667,56.666 31.295,0 56.666,-25.371 56.666,-56.666 0,-31.296 -25.372,-56.665 -56.666,-56.665 z m 0,106.055 c -8.904,0 -16.123,-5.948 -16.123,-13.283 H 72.79 c 0,7.334 -7.219,13.283 -16.123,13.283 z M 83.297,89.04 H 30.034 V 79.382 H 83.298 V 89.04 Z M 83.106,74.411 H 30.186 C 30.01,74.208 29.83,74.008 29.66,73.802 24.208,67.182 22.924,63.726 21.677,60.204 c -0.021,-0.116 6.611,1.355 11.314,2.413 0,0 2.42,0.56 5.958,1.205 -3.397,-3.982 -5.414,-9.044 -5.414,-14.218 0,-11.359 8.712,-21.285 5.569,-29.308 3.059,0.249 6.331,6.456 6.552,16.161 3.252,-4.494 4.613,-12.701 4.613,-17.733 0,-5.21 3.433,-11.262 6.867,-11.469 -3.061,5.045 0.793,9.37 4.219,20.099 1.285,4.03 1.121,10.812 2.113,15.113 C 63.797,33.534 65.333,20.5 71,16 c -2.5,5.667 0.37,12.758 2.333,16.167 3.167,5.5 5.087,9.667 5.087,17.548 0,5.284 -1.951,10.259 -5.242,14.148 3.742,-0.702 6.326,-1.335 6.326,-1.335 l 12.152,-2.371 c 10e-4,-10e-4 -1.765,7.261 -8.55,14.254 z" id="svg3.path4486" inkscape:connector-curvature="0" style="fill:#e6522c;fill-opacity:1"/></svg>
      </g>
    </g>
    <g text-rendering="geometricPrecision" stroke-miterlimit="1.45" shape-rendering="geometricPrecision" font-family="sans-serif" transform="matrix(1,0,0,1,-286,-74)" stroke-linecap="butt">
      <text x="971.2144" xml:space="preserve" y="516.5829" clip-path="url(#clipPath2)" stroke="none">Prometheus</text>
    </g>
    <g text-rendering="geometricPrecision" shape-rendering="geometricPrecision" transform="matrix(0.1064,0,0,0.1064,662.5778,454.1176)">
      <g clip-path="url(#clipPath7)">
        <svg xmlns:svg="http://www.w3.org/2000/svg" xmlns:sodipodi="http://sodipodi.sourceforge.net/DTD/sodipodi-0.dtd" xmlns:inkscape="http://www.inkscape.org/namespaces/inkscape" xmlns:dc="http://purl.org/dc/elements/1.1/" xmlns:cc="http://creativecommons.org/ns#" xmlns:rdf="http://www.w3.org/1999/02/22-rdf-syntax-ns#" xml:space="preserve" opacity="1" writing-mode="lr-tb" stop-color="rgb(0, 0, 0)" shape-rendering="auto" glyph-orientation-horizontal="0deg" color-profile="auto" lighting-color="rgb(255, 255, 255)" color="rgb(0, 0, 0)" font-weight="400" alignment-baseline="auto" font-style="normal" version="1.1" color-interpolation-filters="linearrgb" text-anchor="start" stroke-linecap="butt" color-interpolation="srgb" font-variant="normal" word-spacing="normal" fill-opacity="1" text-rendering="auto" clip-path="none" text-decoration="none" letter-spacing="normal" viewBox="0 0 103.52195 112.69999" glyph-orientation-vertical="auto" display="inline" font-size-adjust="none" overflow="visible" fill="rgb(0, 0, 0)" font-stretch="normal" stroke-dasharray="none" inkscape:version="1.0 (4035a4fb49, 2020-05-01)" id="svg4.Layer_1" stroke-miterlimit="4" stop-opacity="1" color-rendering="auto" font-size="12" pointer-events="visiblepainted" mask="none" direction="ltr" baseline-shift="baseline" sodipodi:docname="Grafana_logo.svg" enable-background="accumulate" fill-rule="nonzero" image-rendering="auto" stroke-dashoffset="0" marker-end="none" width="145.29396" clip="auto" cursor="auto" stroke="none" filter="none" visibility="visible" kerning="auto" stroke-width="1" font-family="&quot;Arial&quot;,&quot;Helvetica&quot;,sans-serif" flood-opacity="1" clip-rule="nonzero" src="none" height="157.90384" unicode-bidi="normal" stroke-linejoin="miter" stroke-opacity="1" flood-color="rgb(0, 0, 0)" dominant-baseline="auto" marker-start="none" marker-mid="none" x="0px" y="0px"><metadata id="svg4.metadata904"/><defs id="svg4.defs902"/>
<style type="text/css" id="svg4.style874">
	.st0{fill:#565656;}
	.st1{fill:url(#SVGID_1_);}
</style>

<linearGradient gradientTransform="matrix(1,0,0,-1,-19.522549,148.6)" x1="71.25" gradientUnits="userSpaceOnUse" x2="71.25" y1="10.4893" y2="113.3415" id="svg4.SVGID_1_">
	<stop style="stop-color:#FCEE1F" offset="0" id="svg4.stop892"/>
	<stop style="stop-color:#F15B2A" offset="1" id="svg4.stop894"/>
</linearGradient>
<path id="svg4.path897" d="m 103.37745,49.9 c -0.2,-1.9 -0.5,-4.1 -1.1,-6.5 -0.6,-2.4 -1.6,-5 -2.899999,-7.8 -1.4,-2.7 -3.1,-5.6 -5.4,-8.3 -0.9,-1.1 -1.9,-2.1 -2.9,-3.2 1.6,-6.3 -1.9,-11.8 -1.9,-11.8 -6.1,-0.4 -9.9,1.9 -11.3,2.9 -0.2,-0.1 -0.5,-0.2 -0.7,-0.3 -1,-0.4 -2.1,-0.8 -3.2,-1.2 -1.1,-0.3 -2.2,-0.7 -3.3,-0.9 -1.1,-0.3 -2.3,-0.5 -3.5,-0.7 -0.2,0 -0.4,-0.1 -0.6,-0.1 -2.6,-8.4 -10.2,-12 -10.2,-12 -8.7,5.6 -10.4,13.1 -10.4,13.1 0,0 0,0.2 -0.1,0.4 -0.5,0.1 -0.9,0.3 -1.4,0.4 -0.6,0.2 -1.3,0.4 -1.9,0.7 -0.6,0.3 -1.3,0.5 -1.9,0.8 -1.3,0.6 -2.5,1.2 -3.8,1.9 -1.2,0.7 -2.4,1.4 -3.5,2.2 -0.2,-0.1 -0.3,-0.2 -0.3,-0.2 -11.7,-4.5 -22.1,0.9 -22.1,0.9 -0.9,12.5 4.7,20.3 5.8,21.7 -0.3,0.8 -0.5,1.5 -0.8,2.3 -0.9,2.8 -1.5,5.7 -1.9,8.7 -0.1,0.4 -0.1,0.9 -0.2,1.3 -10.8,5.3 -14.00000002,16.3 -14.00000002,16.3 9.00000002,10.4 19.60000002,11 19.60000002,11 v 0 c 1.3,2.4 2.9,4.7 4.6,6.8 0.7,0.9 1.5,1.7 2.3,2.6 -3.3,9.4 0.5,17.3 0.5,17.3 10.1,0.4 16.7,-4.4 18.1,-5.5 1,0.3 2,0.6 3,0.9 3.1,0.8 6.3,1.3 9.4,1.4 0.8,0 1.6,0 2.4,0 h 0.4 0.3 0.5 0.5 v 0 c 4.7,6.8 13.1,7.7 13.1,7.7 5.9,-6.3 6.3,-12.4 6.3,-13.8 v 0 c 0,0 0,0 0,-0.1 0,-0.1 0,-0.2 0,-0.2 v 0 c 0,-0.1 0,-0.2 0,-0.3 1.2,-0.9 2.4,-1.8 3.6,-2.8 2.4,-2.1 4.4,-4.6 6.2,-7.2 0.2,-0.2 0.3,-0.5 0.5,-0.7 6.7,0.4 11.399999,-4.2 11.399999,-4.2 -1.1,-7 -5.099999,-10.4 -5.899999,-11 v 0 c 0,0 0,0 -0.1,-0.1 l -0.1,-0.1 v 0 l -0.1,-0.1 c 0,-0.4 0.1,-0.8 0.1,-1.3 0.1,-0.8 0.1,-1.5 0.1,-2.3 v -0.6 -0.3 -0.1 c 0,-0.2 0,-0.1 0,-0.2 v -0.5 -0.6 c 0,-0.2 0,-0.4 0,-0.6 0,-0.2 0,-0.4 -0.1,-0.6 l -0.1,-0.6 -0.1,-0.6 c -0.1,-0.8 -0.3,-1.5 -0.4,-2.3 -0.7,-3 -1.9,-5.9 -3.4,-8.4 -1.6,-2.6 -3.5,-4.8 -5.7,-6.8 -2.2,-1.9 -4.6,-3.5 -7.2,-4.6 -2.6,-1.2 -5.2,-1.9 -7.9,-2.2 -1.3,-0.2 -2.7,-0.2 -4,-0.2 h -0.5 -0.1 -0.2 -0.2 -0.5 c -0.2,0 -0.4,0 -0.5,0 -0.7,0.1 -1.4,0.2 -2,0.3 -2.7,0.5 -5.2,1.5 -7.4,2.8 -2.2,1.3 -4.1,3 -5.7,4.9 -1.6,1.9 -2.8,3.9 -3.6,6.1 -0.8,2.1 -1.3,4.4 -1.4,6.5 0,0.5 0,1.1 0,1.6 0,0.1 0,0.3 0,0.4 v 0.4 c 0,0.3 0,0.5 0.1,0.8 0.1,1.1 0.3,2.1 0.6,3.1 0.6,2 1.5,3.8 2.7,5.4 1.2,1.6 2.5,2.8 4,3.8 1.5,1 3,1.7 4.6,2.2 1.6,0.5 3.1,0.7 4.5,0.6 0.2,0 0.4,0 0.5,0 0.1,0 0.2,0 0.3,0 0.1,0 0.2,0 0.3,0 0.2,0 0.3,0 0.5,0 h 0.1 0.1 c 0.1,0 0.2,0 0.3,0 0.2,0 0.4,-0.1 0.5,-0.1 0.2,0 0.3,-0.1 0.5,-0.1 0.3,-0.1 0.7,-0.2 1,-0.3 0.6,-0.2 1.2,-0.5 1.8,-0.7 0.6,-0.3 1.1,-0.6 1.5,-0.9 0.1,-0.1 0.3,-0.2 0.4,-0.3 0.5,-0.4 0.6,-1.1 0.2,-1.6 -0.4,-0.4 -1,-0.5 -1.5,-0.3 -0.1,0.1 -0.2,0.1 -0.4,0.2 -0.4,0.2 -0.9,0.4 -1.3,0.5 -0.5,0.1 -1,0.3 -1.5,0.4 -0.3,0 -0.5,0.1 -0.8,0.1 -0.1,0 -0.3,0 -0.4,0 -0.1,0 -0.3,0 -0.4,0 -0.1,0 -0.3,0 -0.4,0 -0.2,0 -0.3,0 -0.5,0 0,0 -0.1,0 0,0 h -0.1 -0.1 c -0.1,0 -0.1,0 -0.2,0 -0.1,0 -0.3,0 -0.4,-0.1 -1.1,-0.2 -2.3,-0.5 -3.4,-1 -1.1,-0.5 -2.2,-1.2 -3.1,-2.1 -1,-0.9 -1.8,-1.9 -2.5,-3.1 -0.7,-1.2 -1.1,-2.5 -1.3,-3.8 -0.1,-0.7 -0.2,-1.4 -0.1,-2.1 0,-0.2 0,-0.4 0,-0.6 0,0.1 0,0 0,0 v -0.1 -0.1 c 0,-0.1 0,-0.2 0,-0.3 0,-0.4 0.1,-0.7 0.2,-1.1 0.5,-3 2,-5.9 4.3,-8.1 0.6,-0.6 1.2,-1.1 1.9,-1.5 0.7,-0.5 1.4,-0.9 2.1,-1.2 0.7,-0.3 1.5,-0.6 2.3,-0.8 0.8,-0.2 1.6,-0.4 2.4,-0.4 0.4,0 0.8,-0.1 1.2,-0.1 0.1,0 0.2,0 0.3,0 h 0.3 0.2 c 0.1,0 0,0 0,0 h 0.1 0.3 c 0.9,0.1 1.8,0.2 2.6,0.4 1.7,0.4 3.4,1 5,1.9 3.2,1.8 5.9,4.5 7.5,7.8 0.8,1.6 1.4,3.4 1.7,5.3 0.1,0.5 0.1,0.9 0.2,1.4 v 0.3 0.3 c 0,0.1 0,0.2 0,0.3 0,0.1 0,0.2 0,0.3 v 0.3 0.3 c 0,0.2 0,0.6 0,0.8 0,0.5 -0.1,1 -0.1,1.5 -0.1,0.5 -0.1,1 -0.2,1.5 -0.1,0.5 -0.2,1 -0.3,1.5 -0.2,1 -0.6,1.9 -0.9,2.9 -0.7,1.9 -1.7,3.7 -2.9,5.3 -2.4,3.3 -5.7,6 -9.4,7.7 -1.9,0.8 -3.8,1.5 -5.8,1.8 -1,0.2 -2,0.3 -3,0.3 h -0.2 -0.2 -0.3 -0.5 -0.3 c 0.1,0 0,0 0,0 h -0.1 c -0.5,0 -1.1,0 -1.6,-0.1 -2.2,-0.2 -4.3,-0.6 -6.4,-1.2 -2.1,-0.6 -4.1,-1.4 -6,-2.4 -3.8,-2 -7.2,-4.9 -9.9,-8.2 -1.3,-1.7 -2.5,-3.5 -3.5,-5.4 -1,-1.9 -1.7,-3.9 -2.3,-5.9 -0.6,-2 -0.9,-4.1 -1,-6.2 V 60.7 60.6 60.5 60.3 60 59.9 59.8 59.6 59.1 59 59 58.8 c 0,-0.3 0,-0.5 0,-0.8 0,-1 0.1,-2.1 0.3,-3.2 0.1,-1.1 0.3,-2.1 0.5,-3.2 0.2,-1.1 0.5,-2.1 0.8,-3.2 0.6,-2.1 1.3,-4.1 2.2,-6 1.8,-3.8 4.1,-7.2 6.8,-9.9 0.7,-0.7 1.4,-1.3 2.2,-1.9 0.3,-0.3 1,-0.9 1.8,-1.4 0.8,-0.5 1.6,-1 2.5,-1.4 0.4,-0.2 0.8,-0.4 1.3,-0.6 0.2,-0.1 0.4,-0.2 0.7,-0.3 0.2,-0.1 0.4,-0.2 0.7,-0.3 0.9,-0.4 1.8,-0.7 2.7,-1 0.2,-0.1 0.5,-0.1 0.7,-0.2 0.2,-0.1 0.5,-0.1 0.7,-0.2 0.5,-0.1 0.9,-0.2 1.4,-0.4 0.2,-0.1 0.5,-0.1 0.7,-0.2 0.2,0 0.5,-0.1 0.7,-0.1 0.2,0 0.5,-0.1 0.7,-0.1 l 0.4,-0.1 0.4,-0.1 c 0.2,0 0.5,-0.1 0.7,-0.1 0.3,0 0.5,-0.1 0.8,-0.1 0.2,0 0.6,-0.1 0.8,-0.1 0.2,0 0.3,0 0.5,-0.1 h 0.3 0.2 0.2 c 0.3,0 0.5,0 0.8,-0.1 h 0.4 c 0,0 0.1,0 0,0 h 0.1 0.2 c 0.2,0 0.5,0 0.7,0 0.9,0 1.8,0 2.7,0 1.8,0.1 3.6,0.3 5.3,0.6 3.4,0.6 6.7,1.7 9.6,3.2 2.9,1.4 5.6,3.2 7.8,5.1 0.1,0.1 0.3,0.2 0.4,0.4 0.1,0.1 0.3,0.2 0.4,0.4 0.3,0.2 0.5,0.5 0.8,0.7 0.3,0.2 0.5,0.5 0.8,0.7 0.2,0.3 0.5,0.5 0.7,0.8 1,1 1.9,2.1 2.7,3.1 1.6,2.1 2.9,4.2 3.9,6.2 0.1,0.1 0.1,0.2 0.2,0.4 0.1,0.1 0.1,0.2 0.2,0.4 0.1,0.2 0.2,0.5 0.4,0.7 0.1,0.2 0.2,0.5 0.3,0.7 0.1,0.2 0.2,0.5 0.3,0.7 0.399999,0.9 0.699999,1.8 0.999999,2.7 0.5,1.4 0.8,2.6 1.1,3.6 0.1,0.4 0.5,0.7 0.9,0.7 0.5,0 0.8,-0.4 0.8,-0.9 -0.1,-1.2 -0.1,-2.5 -0.2,-4 z" style="fill:url(#svg4.SVGID_1_)" class="st1"/>
</svg>
      </g>
    </g>
    <g text-rendering="geometricPrecision" stroke-miterlimit="1.45" shape-rendering="geometricPrecision" font-family="sans-serif" transform="matrix(1,0,0,1,-286,-74)" stroke-linecap="butt">
      <text x="970.0258" xml:space="preserve" y="541.2286" clip-path="url(#clipPath2)" stroke="none">Grafana</text>
    </g>
    <g text-rendering="geometricPrecision" shape-rendering="geometricPrecision" transform="matrix(0.1157,0,0,0.1157,79.2776,76.5539)">
      <g clip-path="url(#clipPath8)">
        <svg xmlns:svg="http://www.w3.org/2000/svg" xmlns:sodipodi="http://sodipodi.sourceforge.net/DTD/sodipodi-0.dtd" xmlns:inkscape="http://www.inkscape.org/namespaces/inkscape" xmlns:dc="http://purl.org/dc/elements/1.1/" xmlns:cc="http://creativecommons.org/ns#" xmlns:rdf="http://www.w3.org/1999/02/22-rdf-syntax-ns#" xml:space="preserve" opacity="1" writing-mode="lr-tb" stop-color="rgb(0, 0, 0)" shape-rendering="auto" glyph-orientation-horizontal="0deg" color-profile="auto" lighting-color="rgb(255, 255, 255)" color="rgb(0, 0, 0)" font-weight="400" alignment-baseline="auto" font-style="normal" version="1.1" color-interpolation-filters="linearrgb" text-anchor="start" stroke-linecap="butt" color-interpolation="srgb" font-variant="normal" word-spacing="normal" fill-opacity="1" text-rendering="auto" clip-path="none" text-decoration="none" letter-spacing="normal" viewBox="0 0 115.333 114" glyph-orientation-vertical="auto" display="inline" font-size-adjust="none" overflow="visible" fill="rgb(0, 0, 0)" font-stretch="normal" stroke-dasharray="none" inkscape:version="1.0 (4035a4fb49, 2020-05-01)" id="svg5.Layer_1" stroke-miterlimit="4" stop-opacity="1" color-rendering="auto" font-size="12" pointer-events="visiblepainted" mask="none" direction="ltr" baseline-shift="baseline" sodipodi:docname="Alert_Manager_logo.svg" enable-background="new 0 0 115.333 114" fill-rule="nonzero" image-rendering="auto" stroke-dashoffset="0" marker-end="none" width="115.333px" clip="auto" cursor="auto" stroke="none" filter="none" visibility="visible" kerning="auto" stroke-width="1" font-family="&quot;Arial&quot;,&quot;Helvetica&quot;,sans-serif" flood-opacity="1" clip-rule="nonzero" src="none" height="114px" unicode-bidi="normal" stroke-linejoin="miter" stroke-opacity="1" flood-color="rgb(0, 0, 0)" dominant-baseline="auto" marker-start="none" marker-mid="none" x="0px" y="0px"><metadata id="svg5.metadata4495"/><defs id="svg5.defs4493"/><g id="svg5.Layer_2"/><path d="M 56.667,0.667 C 25.372,0.667 0,26.036 0,57.332 c 0,31.295 25.372,56.666 56.667,56.666 31.295,0 56.666,-25.371 56.666,-56.666 0,-31.296 -25.372,-56.665 -56.666,-56.665 z m 0,106.055 c -8.904,0 -16.123,-5.948 -16.123,-13.283 H 72.79 c 0,7.334 -7.219,13.283 -16.123,13.283 z M 83.297,89.04 H 30.034 V 79.382 H 83.298 V 89.04 Z M 83.106,74.411 H 30.186 C 30.01,74.208 29.83,74.008 29.66,73.802 24.208,67.182 22.924,63.726 21.677,60.204 c -0.021,-0.116 6.611,1.355 11.314,2.413 0,0 2.42,0.56 5.958,1.205 -3.397,-3.982 -5.414,-9.044 -5.414,-14.218 0,-11.359 8.712,-21.285 5.569,-29.308 3.059,0.249 6.331,6.456 6.552,16.161 3.252,-4.494 4.613,-12.701 4.613,-17.733 0,-5.21 3.433,-11.262 6.867,-11.469 -3.061,5.045 0.793,9.37 4.219,20.099 1.285,4.03 1.121,10.812 2.113,15.113 C 63.797,33.534 65.333,20.5 71,16 c -2.5,5.667 0.37,12.758 2.333,16.167 3.167,5.5 5.087,9.667 5.087,17.548 0,5.284 -1.951,10.259 -5.242,14.148 3.742,-0.702 6.326,-1.335 6.326,-1.335 l 12.152,-2.371 c 10e-4,-10e-4 -1.765,7.261 -8.55,14.254 z" id="svg5.path4486" inkscape:connector-curvature="0" style="fill:#000039;fill-opacity:1"/></svg>
      </g>
    </g>
    <g text-rendering="geometricPrecision" shape-rendering="geometricPrecision" transform="matrix(0.0833,0,0,0.0833,96.4672,76.6106)">
      <g clip-path="url(#clipPath9)">
        <svg xmlns:svg="http://www.w3.org/2000/svg" xmlns:sodipodi="http://sodipodi.sourceforge.net/DTD/sodipodi-0.dtd" xmlns:inkscape="http://www.inkscape.org/namespaces/inkscape" xmlns:dc="http://purl.org/dc/elements/1.1/" xmlns:cc="http://creativecommons.org/ns#" xmlns:rdf="http://www.w3.org/1999/02/22-rdf-syntax-ns#" xml:space="preserve" opacity="1" writing-mode="lr-tb" stop-color="rgb(0, 0, 0)" shape-rendering="auto" glyph-orientation-horizontal="0deg" color-profile="auto" lighting-color="rgb(255, 255, 255)" color="rgb(0, 0, 0)" font-weight="400" alignment-baseline="auto" font-style="normal" version="1.1" color-interpolation-filters="linearrgb" text-anchor="start" stroke-linecap="butt" color-interpolation="srgb" font-variant="normal" word-spacing="normal" fill-opacity="1" text-rendering="auto" clip-path="none" text-decoration="none" letter-spacing="normal" viewBox="0 0 103.52195 112.69999" glyph-orientation-vertical="auto" display="inline" font-size-adjust="none" overflow="visible" fill="rgb(0, 0, 0)" font-stretch="normal" stroke-dasharray="none" inkscape:version="1.0 (4035a4fb49, 2020-05-01)" id="svg6.Layer_1" stroke-miterlimit="4" stop-opacity="1" color-rendering="auto" font-size="12" pointer-events="visiblepainted" mask="none" direction="ltr" baseline-shift="baseline" sodipodi:docname="Grafana_logo.svg" enable-background="accumulate" fill-rule="nonzero" image-rendering="auto" stroke-dashoffset="0" marker-end="none" width="145.29396" clip="auto" cursor="auto" stroke="none" filter="none" visibility="visible" kerning="auto" stroke-width="1" font-family="&quot;Arial&quot;,&quot;Helvetica&quot;,sans-serif" flood-opacity="1" clip-rule="nonzero" src="none" height="157.90384" unicode-bidi="normal" stroke-linejoin="miter" stroke-opacity="1" flood-color="rgb(0, 0, 0)" dominant-baseline="auto" marker-start="none" marker-mid="none" x="0px" y="0px"><metadata id="svg6.metadata904"/><defs id="svg6.defs902"/>
<style type="text/css" id="svg6.style874">
	.st0{fill:#565656;}
	.st1{fill:url(#SVGID_1_);}
</style>

<linearGradient gradientTransform="matrix(1,0,0,-1,-19.522549,148.6)" x1="71.25" gradientUnits="userSpaceOnUse" x2="71.25" y1="10.4893" y2="113.3415" id="svg6.SVGID_1_">
	<stop style="stop-color:#FCEE1F" offset="0" id="svg6.stop892"/>
	<stop style="stop-color:#F15B2A" offset="1" id="svg6.stop894"/>
</linearGradient>
<path id="svg6.path897" d="m 103.37745,49.9 c -0.2,-1.9 -0.5,-4.1 -1.1,-6.5 -0.6,-2.4 -1.6,-5 -2.899999,-7.8 -1.4,-2.7 -3.1,-5.6 -5.4,-8.3 -0.9,-1.1 -1.9,-2.1 -2.9,-3.2 1.6,-6.3 -1.9,-11.8 -1.9,-11.8 -6.1,-0.4 -9.9,1.9 -11.3,2.9 -0.2,-0.1 -0.5,-0.2 -0.7,-0.3 -1,-0.4 -2.1,-0.8 -3.2,-1.2 -1.1,-0.3 -2.2,-0.7 -3.3,-0.9 -1.1,-0.3 -2.3,-0.5 -3.5,-0.7 -0.2,0 -0.4,-0.1 -0.6,-0.1 -2.6,-8.4 -10.2,-12 -10.2,-12 -8.7,5.6 -10.4,13.1 -10.4,13.1 0,0 0,0.2 -0.1,0.4 -0.5,0.1 -0.9,0.3 -1.4,0.4 -0.6,0.2 -1.3,0.4 -1.9,0.7 -0.6,0.3 -1.3,0.5 -1.9,0.8 -1.3,0.6 -2.5,1.2 -3.8,1.9 -1.2,0.7 -2.4,1.4 -3.5,2.2 -0.2,-0.1 -0.3,-0.2 -0.3,-0.2 -11.7,-4.5 -22.1,0.9 -22.1,0.9 -0.9,12.5 4.7,20.3 5.8,21.7 -0.3,0.8 -0.5,1.5 -0.8,2.3 -0.9,2.8 -1.5,5.7 -1.9,8.7 -0.1,0.4 -0.1,0.9 -0.2,1.3 -10.8,5.3 -14.00000002,16.3 -14.00000002,16.3 9.00000002,10.4 19.60000002,11 19.60000002,11 v 0 c 1.3,2.4 2.9,4.7 4.6,6.8 0.7,0.9 1.5,1.7 2.3,2.6 -3.3,9.4 0.5,17.3 0.5,17.3 10.1,0.4 16.7,-4.4 18.1,-5.5 1,0.3 2,0.6 3,0.9 3.1,0.8 6.3,1.3 9.4,1.4 0.8,0 1.6,0 2.4,0 h 0.4 0.3 0.5 0.5 v 0 c 4.7,6.8 13.1,7.7 13.1,7.7 5.9,-6.3 6.3,-12.4 6.3,-13.8 v 0 c 0,0 0,0 0,-0.1 0,-0.1 0,-0.2 0,-0.2 v 0 c 0,-0.1 0,-0.2 0,-0.3 1.2,-0.9 2.4,-1.8 3.6,-2.8 2.4,-2.1 4.4,-4.6 6.2,-7.2 0.2,-0.2 0.3,-0.5 0.5,-0.7 6.7,0.4 11.399999,-4.2 11.399999,-4.2 -1.1,-7 -5.099999,-10.4 -5.899999,-11 v 0 c 0,0 0,0 -0.1,-0.1 l -0.1,-0.1 v 0 l -0.1,-0.1 c 0,-0.4 0.1,-0.8 0.1,-1.3 0.1,-0.8 0.1,-1.5 0.1,-2.3 v -0.6 -0.3 -0.1 c 0,-0.2 0,-0.1 0,-0.2 v -0.5 -0.6 c 0,-0.2 0,-0.4 0,-0.6 0,-0.2 0,-0.4 -0.1,-0.6 l -0.1,-0.6 -0.1,-0.6 c -0.1,-0.8 -0.3,-1.5 -0.4,-2.3 -0.7,-3 -1.9,-5.9 -3.4,-8.4 -1.6,-2.6 -3.5,-4.8 -5.7,-6.8 -2.2,-1.9 -4.6,-3.5 -7.2,-4.6 -2.6,-1.2 -5.2,-1.9 -7.9,-2.2 -1.3,-0.2 -2.7,-0.2 -4,-0.2 h -0.5 -0.1 -0.2 -0.2 -0.5 c -0.2,0 -0.4,0 -0.5,0 -0.7,0.1 -1.4,0.2 -2,0.3 -2.7,0.5 -5.2,1.5 -7.4,2.8 -2.2,1.3 -4.1,3 -5.7,4.9 -1.6,1.9 -2.8,3.9 -3.6,6.1 -0.8,2.1 -1.3,4.4 -1.4,6.5 0,0.5 0,1.1 0,1.6 0,0.1 0,0.3 0,0.4 v 0.4 c 0,0.3 0,0.5 0.1,0.8 0.1,1.1 0.3,2.1 0.6,3.1 0.6,2 1.5,3.8 2.7,5.4 1.2,1.6 2.5,2.8 4,3.8 1.5,1 3,1.7 4.6,2.2 1.6,0.5 3.1,0.7 4.5,0.6 0.2,0 0.4,0 0.5,0 0.1,0 0.2,0 0.3,0 0.1,0 0.2,0 0.3,0 0.2,0 0.3,0 0.5,0 h 0.1 0.1 c 0.1,0 0.2,0 0.3,0 0.2,0 0.4,-0.1 0.5,-0.1 0.2,0 0.3,-0.1 0.5,-0.1 0.3,-0.1 0.7,-0.2 1,-0.3 0.6,-0.2 1.2,-0.5 1.8,-0.7 0.6,-0.3 1.1,-0.6 1.5,-0.9 0.1,-0.1 0.3,-0.2 0.4,-0.3 0.5,-0.4 0.6,-1.1 0.2,-1.6 -0.4,-0.4 -1,-0.5 -1.5,-0.3 -0.1,0.1 -0.2,0.1 -0.4,0.2 -0.4,0.2 -0.9,0.4 -1.3,0.5 -0.5,0.1 -1,0.3 -1.5,0.4 -0.3,0 -0.5,0.1 -0.8,0.1 -0.1,0 -0.3,0 -0.4,0 -0.1,0 -0.3,0 -0.4,0 -0.1,0 -0.3,0 -0.4,0 -0.2,0 -0.3,0 -0.5,0 0,0 -0.1,0 0,0 h -0.1 -0.1 c -0.1,0 -0.1,0 -0.2,0 -0.1,0 -0.3,0 -0.4,-0.1 -1.1,-0.2 -2.3,-0.5 -3.4,-1 -1.1,-0.5 -2.2,-1.2 -3.1,-2.1 -1,-0.9 -1.8,-1.9 -2.5,-3.1 -0.7,-1.2 -1.1,-2.5 -1.3,-3.8 -0.1,-0.7 -0.2,-1.4 -0.1,-2.1 0,-0.2 0,-0.4 0,-0.6 0,0.1 0,0 0,0 v -0.1 -0.1 c 0,-0.1 0,-0.2 0,-0.3 0,-0.4 0.1,-0.7 0.2,-1.1 0.5,-3 2,-5.9 4.3,-8.1 0.6,-0.6 1.2,-1.1 1.9,-1.5 0.7,-0.5 1.4,-0.9 2.1,-1.2 0.7,-0.3 1.5,-0.6 2.3,-0.8 0.8,-0.2 1.6,-0.4 2.4,-0.4 0.4,0 0.8,-0.1 1.2,-0.1 0.1,0 0.2,0 0.3,0 h 0.3 0.2 c 0.1,0 0,0 0,0 h 0.1 0.3 c 0.9,0.1 1.8,0.2 2.6,0.4 1.7,0.4 3.4,1 5,1.9 3.2,1.8 5.9,4.5 7.5,7.8 0.8,1.6 1.4,3.4 1.7,5.3 0.1,0.5 0.1,0.9 0.2,1.4 v 0.3 0.3 c 0,0.1 0,0.2 0,0.3 0,0.1 0,0.2 0,0.3 v 0.3 0.3 c 0,0.2 0,0.6 0,0.8 0,0.5 -0.1,1 -0.1,1.5 -0.1,0.5 -0.1,1 -0.2,1.5 -0.1,0.5 -0.2,1 -0.3,1.5 -0.2,1 -0.6,1.9 -0.9,2.9 -0.7,1.9 -1.7,3.7 -2.9,5.3 -2.4,3.3 -5.7,6 -9.4,7.7 -1.9,0.8 -3.8,1.5 -5.8,1.8 -1,0.2 -2,0.3 -3,0.3 h -0.2 -0.2 -0.3 -0.5 -0.3 c 0.1,0 0,0 0,0 h -0.1 c -0.5,0 -1.1,0 -1.6,-0.1 -2.2,-0.2 -4.3,-0.6 -6.4,-1.2 -2.1,-0.6 -4.1,-1.4 -6,-2.4 -3.8,-2 -7.2,-4.9 -9.9,-8.2 -1.3,-1.7 -2.5,-3.5 -3.5,-5.4 -1,-1.9 -1.7,-3.9 -2.3,-5.9 -0.6,-2 -0.9,-4.1 -1,-6.2 V 60.7 60.6 60.5 60.3 60 59.9 59.8 59.6 59.1 59 59 58.8 c 0,-0.3 0,-0.5 0,-0.8 0,-1 0.1,-2.1 0.3,-3.2 0.1,-1.1 0.3,-2.1 0.5,-3.2 0.2,-1.1 0.5,-2.1 0.8,-3.2 0.6,-2.1 1.3,-4.1 2.2,-6 1.8,-3.8 4.1,-7.2 6.8,-9.9 0.7,-0.7 1.4,-1.3 2.2,-1.9 0.3,-0.3 1,-0.9 1.8,-1.4 0.8,-0.5 1.6,-1 2.5,-1.4 0.4,-0.2 0.8,-0.4 1.3,-0.6 0.2,-0.1 0.4,-0.2 0.7,-0.3 0.2,-0.1 0.4,-0.2 0.7,-0.3 0.9,-0.4 1.8,-0.7 2.7,-1 0.2,-0.1 0.5,-0.1 0.7,-0.2 0.2,-0.1 0.5,-0.1 0.7,-0.2 0.5,-0.1 0.9,-0.2 1.4,-0.4 0.2,-0.1 0.5,-0.1 0.7,-0.2 0.2,0 0.5,-0.1 0.7,-0.1 0.2,0 0.5,-0.1 0.7,-0.1 l 0.4,-0.1 0.4,-0.1 c 0.2,0 0.5,-0.1 0.7,-0.1 0.3,0 0.5,-0.1 0.8,-0.1 0.2,0 0.6,-0.1 0.8,-0.1 0.2,0 0.3,0 0.5,-0.1 h 0.3 0.2 0.2 c 0.3,0 0.5,0 0.8,-0.1 h 0.4 c 0,0 0.1,0 0,0 h 0.1 0.2 c 0.2,0 0.5,0 0.7,0 0.9,0 1.8,0 2.7,0 1.8,0.1 3.6,0.3 5.3,0.6 3.4,0.6 6.7,1.7 9.6,3.2 2.9,1.4 5.6,3.2 7.8,5.1 0.1,0.1 0.3,0.2 0.4,0.4 0.1,0.1 0.3,0.2 0.4,0.4 0.3,0.2 0.5,0.5 0.8,0.7 0.3,0.2 0.5,0.5 0.8,0.7 0.2,0.3 0.5,0.5 0.7,0.8 1,1 1.9,2.1 2.7,3.1 1.6,2.1 2.9,4.2 3.9,6.2 0.1,0.1 0.1,0.2 0.2,0.4 0.1,0.1 0.1,0.2 0.2,0.4 0.1,0.2 0.2,0.5 0.4,0.7 0.1,0.2 0.2,0.5 0.3,0.7 0.1,0.2 0.2,0.5 0.3,0.7 0.399999,0.9 0.699999,1.8 0.999999,2.7 0.5,1.4 0.8,2.6 1.1,3.6 0.1,0.4 0.5,0.7 0.9,0.7 0.5,0 0.8,-0.4 0.8,-0.9 -0.1,-1.2 -0.1,-2.5 -0.2,-4 z" style="fill:url(#svg6.SVGID_1_)" class="st1"/>
</svg>
      </g>
    </g>
    <g fill="silver" text-rendering="geometricPrecision" shape-rendering="geometricPrecision" transform="matrix(1,0,0,1,-286,-74)" stroke="silver">
      <path d="M455.7932 106.5131 L576.3241 106.5131 L589.7164 137.9131 L576.3241 169.3131 L455.7932 169.3131 L469.1855 137.9131 Z" fill-rule="evenodd" clip-path="url(#clipPath2)" stroke="none"/>
    </g>
    <g text-rendering="geometricPrecision" stroke-miterlimit="1.45" shape-rendering="geometricPrecision" transform="matrix(1,0,0,1,-286,-74)" stroke-linecap="butt">
      <path fill="none" d="M455.7932 106.5131 L576.3241 106.5131 L589.7164 137.9131 L576.3241 169.3131 L455.7932 169.3131 L469.1855 137.9131 Z" fill-rule="evenodd" clip-path="url(#clipPath2)"/>
      <text x="488.5654" font-size="10px" y="122.5668" clip-path="url(#clipPath2)" font-family="sans-serif" stroke="none" xml:space="preserve">Learn concepts</text>
      <text x="483.287" font-size="10px" y="134.8178" clip-path="url(#clipPath2)" font-family="sans-serif" stroke="none" xml:space="preserve">and terminologies</text>
      <text x="473.3066" font-size="10px" y="147.0688" clip-path="url(#clipPath2)" font-family="sans-serif" stroke="none" xml:space="preserve">(metric, time series ...)</text>
    </g>
    <g text-rendering="geometricPrecision" shape-rendering="geometricPrecision" transform="matrix(0.1163,0,0,0.1163,193.9552,76.5211)">
      <g clip-path="url(#clipPath10)">
        <svg xmlns:svg="http://www.w3.org/2000/svg" xmlns:sodipodi="http://sodipodi.sourceforge.net/DTD/sodipodi-0.dtd" xmlns:inkscape="http://www.inkscape.org/namespaces/inkscape" xmlns:dc="http://purl.org/dc/elements/1.1/" xmlns:cc="http://creativecommons.org/ns#" xmlns:rdf="http://www.w3.org/1999/02/22-rdf-syntax-ns#" xml:space="preserve" opacity="1" writing-mode="lr-tb" stop-color="rgb(0, 0, 0)" shape-rendering="auto" glyph-orientation-horizontal="0deg" color-profile="auto" lighting-color="rgb(255, 255, 255)" color="rgb(0, 0, 0)" font-weight="400" alignment-baseline="auto" font-style="normal" version="1.1" color-interpolation-filters="linearrgb" text-anchor="start" stroke-linecap="butt" color-interpolation="srgb" font-variant="normal" word-spacing="normal" fill-opacity="1" text-rendering="auto" clip-path="none" text-decoration="none" letter-spacing="normal" viewBox="0 0 115.333 114" glyph-orientation-vertical="auto" display="inline" font-size-adjust="none" overflow="visible" fill="rgb(0, 0, 0)" font-stretch="normal" stroke-dasharray="none" inkscape:version="0.92.1 r15371" id="svg7.Layer_1" stroke-miterlimit="4" stop-opacity="1" color-rendering="auto" font-size="12" pointer-events="visiblepainted" mask="none" direction="ltr" baseline-shift="baseline" sodipodi:docname="prometheus_logo_orange.svg" enable-background="new 0 0 115.333 114" fill-rule="nonzero" image-rendering="auto" stroke-dashoffset="0" marker-end="none" width="115.333px" clip="auto" cursor="auto" stroke="none" filter="none" visibility="visible" kerning="auto" stroke-width="1" font-family="&quot;Arial&quot;,&quot;Helvetica&quot;,sans-serif" flood-opacity="1" clip-rule="nonzero" src="none" height="114px" unicode-bidi="normal" stroke-linejoin="miter" stroke-opacity="1" flood-color="rgb(0, 0, 0)" dominant-baseline="auto" marker-start="none" marker-mid="none" x="0px" y="0px"><metadata id="svg7.metadata4495"/><defs id="svg7.defs4493"/><g id="svg7.Layer_2"/><path d="M 56.667,0.667 C 25.372,0.667 0,26.036 0,57.332 c 0,31.295 25.372,56.666 56.667,56.666 31.295,0 56.666,-25.371 56.666,-56.666 0,-31.296 -25.372,-56.665 -56.666,-56.665 z m 0,106.055 c -8.904,0 -16.123,-5.948 -16.123,-13.283 H 72.79 c 0,7.334 -7.219,13.283 -16.123,13.283 z M 83.297,89.04 H 30.034 V 79.382 H 83.298 V 89.04 Z M 83.106,74.411 H 30.186 C 30.01,74.208 29.83,74.008 29.66,73.802 24.208,67.182 22.924,63.726 21.677,60.204 c -0.021,-0.116 6.611,1.355 11.314,2.413 0,0 2.42,0.56 5.958,1.205 -3.397,-3.982 -5.414,-9.044 -5.414,-14.218 0,-11.359 8.712,-21.285 5.569,-29.308 3.059,0.249 6.331,6.456 6.552,16.161 3.252,-4.494 4.613,-12.701 4.613,-17.733 0,-5.21 3.433,-11.262 6.867,-11.469 -3.061,5.045 0.793,9.37 4.219,20.099 1.285,4.03 1.121,10.812 2.113,15.113 C 63.797,33.534 65.333,20.5 71,16 c -2.5,5.667 0.37,12.758 2.333,16.167 3.167,5.5 5.087,9.667 5.087,17.548 0,5.284 -1.951,10.259 -5.242,14.148 3.742,-0.702 6.326,-1.335 6.326,-1.335 l 12.152,-2.371 c 10e-4,-10e-4 -1.765,7.261 -8.55,14.254 z" id="svg7.path4486" inkscape:connector-curvature="0" style="fill:#e6522c;fill-opacity:1"/></svg>
      </g>
    </g>
    <g fill="silver" text-rendering="geometricPrecision" shape-rendering="geometricPrecision" transform="matrix(1,0,0,1,-286,-74)" stroke="silver">
      <path d="M582.6032 106.5131 L714.7232 106.5131 L729.4032 137.9131 L714.7232 169.3131 L582.6032 169.3131 L597.2832 137.9131 Z" fill-rule="evenodd" clip-path="url(#clipPath2)" stroke="none"/>
    </g>
    <g text-rendering="geometricPrecision" stroke-miterlimit="1.45" shape-rendering="geometricPrecision" transform="matrix(1,0,0,1,-286,-74)" stroke-linecap="butt">
      <path fill="none" d="M582.6032 106.5131 L714.7232 106.5131 L729.4032 137.9131 L714.7232 169.3131 L582.6032 169.3131 L597.2832 137.9131 Z" fill-rule="evenodd" clip-path="url(#clipPath2)"/>
      <text x="607.9149" font-size="10px" y="122.5668" clip-path="url(#clipPath2)" font-family="sans-serif" stroke="none" xml:space="preserve">Learn where and how</text>
      <text x="601.2425" font-size="10px" y="134.8178" clip-path="url(#clipPath2)" font-family="sans-serif" stroke="none" xml:space="preserve">to configure and connect</text>
      <text x="605.4197" font-size="10px" y="147.0688" clip-path="url(#clipPath2)" font-family="sans-serif" stroke="none" xml:space="preserve">the different processes</text>
    </g>
    <g text-rendering="geometricPrecision" shape-rendering="geometricPrecision" transform="matrix(0.1163,0,0,0.1163,316.4659,76.5535)">
      <g clip-path="url(#clipPath11)">
        <svg xmlns:svg="http://www.w3.org/2000/svg" xmlns:sodipodi="http://sodipodi.sourceforge.net/DTD/sodipodi-0.dtd" xmlns:inkscape="http://www.inkscape.org/namespaces/inkscape" xmlns:dc="http://purl.org/dc/elements/1.1/" xmlns:cc="http://creativecommons.org/ns#" xmlns:rdf="http://www.w3.org/1999/02/22-rdf-syntax-ns#" xml:space="preserve" opacity="1" writing-mode="lr-tb" stop-color="rgb(0, 0, 0)" shape-rendering="auto" glyph-orientation-horizontal="0deg" color-profile="auto" lighting-color="rgb(255, 255, 255)" color="rgb(0, 0, 0)" font-weight="400" alignment-baseline="auto" font-style="normal" version="1.1" color-interpolation-filters="linearrgb" text-anchor="start" stroke-linecap="butt" color-interpolation="srgb" font-variant="normal" word-spacing="normal" fill-opacity="1" text-rendering="auto" clip-path="none" text-decoration="none" letter-spacing="normal" viewBox="0 0 115.333 114" glyph-orientation-vertical="auto" display="inline" font-size-adjust="none" overflow="visible" fill="rgb(0, 0, 0)" font-stretch="normal" stroke-dasharray="none" inkscape:version="0.92.1 r15371" id="svg8.Layer_1" stroke-miterlimit="4" stop-opacity="1" color-rendering="auto" font-size="12" pointer-events="visiblepainted" mask="none" direction="ltr" baseline-shift="baseline" sodipodi:docname="prometheus_logo_orange.svg" enable-background="new 0 0 115.333 114" fill-rule="nonzero" image-rendering="auto" stroke-dashoffset="0" marker-end="none" width="115.333px" clip="auto" cursor="auto" stroke="none" filter="none" visibility="visible" kerning="auto" stroke-width="1" font-family="&quot;Arial&quot;,&quot;Helvetica&quot;,sans-serif" flood-opacity="1" clip-rule="nonzero" src="none" height="114px" unicode-bidi="normal" stroke-linejoin="miter" stroke-opacity="1" flood-color="rgb(0, 0, 0)" dominant-baseline="auto" marker-start="none" marker-mid="none" x="0px" y="0px"><metadata id="svg8.metadata4495"/><defs id="svg8.defs4493"/><g id="svg8.Layer_2"/><path d="M 56.667,0.667 C 25.372,0.667 0,26.036 0,57.332 c 0,31.295 25.372,56.666 56.667,56.666 31.295,0 56.666,-25.371 56.666,-56.666 0,-31.296 -25.372,-56.665 -56.666,-56.665 z m 0,106.055 c -8.904,0 -16.123,-5.948 -16.123,-13.283 H 72.79 c 0,7.334 -7.219,13.283 -16.123,13.283 z M 83.297,89.04 H 30.034 V 79.382 H 83.298 V 89.04 Z M 83.106,74.411 H 30.186 C 30.01,74.208 29.83,74.008 29.66,73.802 24.208,67.182 22.924,63.726 21.677,60.204 c -0.021,-0.116 6.611,1.355 11.314,2.413 0,0 2.42,0.56 5.958,1.205 -3.397,-3.982 -5.414,-9.044 -5.414,-14.218 0,-11.359 8.712,-21.285 5.569,-29.308 3.059,0.249 6.331,6.456 6.552,16.161 3.252,-4.494 4.613,-12.701 4.613,-17.733 0,-5.21 3.433,-11.262 6.867,-11.469 -3.061,5.045 0.793,9.37 4.219,20.099 1.285,4.03 1.121,10.812 2.113,15.113 C 63.797,33.534 65.333,20.5 71,16 c -2.5,5.667 0.37,12.758 2.333,16.167 3.167,5.5 5.087,9.667 5.087,17.548 0,5.284 -1.951,10.259 -5.242,14.148 3.742,-0.702 6.326,-1.335 6.326,-1.335 l 12.152,-2.371 c 10e-4,-10e-4 -1.765,7.261 -8.55,14.254 z" id="svg8.path4486" inkscape:connector-curvature="0" style="fill:#e6522c;fill-opacity:1"/></svg>
      </g>
    </g>
    <g text-rendering="geometricPrecision" shape-rendering="geometricPrecision" transform="matrix(0.1157,0,0,0.1157,333.7164,76.5539)">
      <g clip-path="url(#clipPath12)">
        <svg xmlns:svg="http://www.w3.org/2000/svg" xmlns:sodipodi="http://sodipodi.sourceforge.net/DTD/sodipodi-0.dtd" xmlns:inkscape="http://www.inkscape.org/namespaces/inkscape" xmlns:dc="http://purl.org/dc/elements/1.1/" xmlns:cc="http://creativecommons.org/ns#" xmlns:rdf="http://www.w3.org/1999/02/22-rdf-syntax-ns#" xml:space="preserve" opacity="1" writing-mode="lr-tb" stop-color="rgb(0, 0, 0)" shape-rendering="auto" glyph-orientation-horizontal="0deg" color-profile="auto" lighting-color="rgb(255, 255, 255)" color="rgb(0, 0, 0)" font-weight="400" alignment-baseline="auto" font-style="normal" version="1.1" color-interpolation-filters="linearrgb" text-anchor="start" stroke-linecap="butt" color-interpolation="srgb" font-variant="normal" word-spacing="normal" fill-opacity="1" text-rendering="auto" clip-path="none" text-decoration="none" letter-spacing="normal" viewBox="0 0 115.333 114" glyph-orientation-vertical="auto" display="inline" font-size-adjust="none" overflow="visible" fill="rgb(0, 0, 0)" font-stretch="normal" stroke-dasharray="none" inkscape:version="1.0 (4035a4fb49, 2020-05-01)" id="svg9.Layer_1" stroke-miterlimit="4" stop-opacity="1" color-rendering="auto" font-size="12" pointer-events="visiblepainted" mask="none" direction="ltr" baseline-shift="baseline" sodipodi:docname="Alert_Manager_logo.svg" enable-background="new 0 0 115.333 114" fill-rule="nonzero" image-rendering="auto" stroke-dashoffset="0" marker-end="none" width="115.333px" clip="auto" cursor="auto" stroke="none" filter="none" visibility="visible" kerning="auto" stroke-width="1" font-family="&quot;Arial&quot;,&quot;Helvetica&quot;,sans-serif" flood-opacity="1" clip-rule="nonzero" src="none" height="114px" unicode-bidi="normal" stroke-linejoin="miter" stroke-opacity="1" flood-color="rgb(0, 0, 0)" dominant-baseline="auto" marker-start="none" marker-mid="none" x="0px" y="0px"><metadata id="svg9.metadata4495"/><defs id="svg9.defs4493"/><g id="svg9.Layer_2"/><path d="M 56.667,0.667 C 25.372,0.667 0,26.036 0,57.332 c 0,31.295 25.372,56.666 56.667,56.666 31.295,0 56.666,-25.371 56.666,-56.666 0,-31.296 -25.372,-56.665 -56.666,-56.665 z m 0,106.055 c -8.904,0 -16.123,-5.948 -16.123,-13.283 H 72.79 c 0,7.334 -7.219,13.283 -16.123,13.283 z M 83.297,89.04 H 30.034 V 79.382 H 83.298 V 89.04 Z M 83.106,74.411 H 30.186 C 30.01,74.208 29.83,74.008 29.66,73.802 24.208,67.182 22.924,63.726 21.677,60.204 c -0.021,-0.116 6.611,1.355 11.314,2.413 0,0 2.42,0.56 5.958,1.205 -3.397,-3.982 -5.414,-9.044 -5.414,-14.218 0,-11.359 8.712,-21.285 5.569,-29.308 3.059,0.249 6.331,6.456 6.552,16.161 3.252,-4.494 4.613,-12.701 4.613,-17.733 0,-5.21 3.433,-11.262 6.867,-11.469 -3.061,5.045 0.793,9.37 4.219,20.099 1.285,4.03 1.121,10.812 2.113,15.113 C 63.797,33.534 65.333,20.5 71,16 c -2.5,5.667 0.37,12.758 2.333,16.167 3.167,5.5 5.087,9.667 5.087,17.548 0,5.284 -1.951,10.259 -5.242,14.148 3.742,-0.702 6.326,-1.335 6.326,-1.335 l 12.152,-2.371 c 10e-4,-10e-4 -1.765,7.261 -8.55,14.254 z" id="svg9.path4486" inkscape:connector-curvature="0" style="fill:#000039;fill-opacity:1"/></svg>
      </g>
    </g>
    <g text-rendering="geometricPrecision" shape-rendering="geometricPrecision" transform="matrix(0.0833,0,0,0.0833,350.906,76.6106)">
      <g clip-path="url(#clipPath13)">
        <svg xmlns:svg="http://www.w3.org/2000/svg" xmlns:sodipodi="http://sodipodi.sourceforge.net/DTD/sodipodi-0.dtd" xmlns:inkscape="http://www.inkscape.org/namespaces/inkscape" xmlns:dc="http://purl.org/dc/elements/1.1/" xmlns:cc="http://creativecommons.org/ns#" xmlns:rdf="http://www.w3.org/1999/02/22-rdf-syntax-ns#" xml:space="preserve" opacity="1" writing-mode="lr-tb" stop-color="rgb(0, 0, 0)" shape-rendering="auto" glyph-orientation-horizontal="0deg" color-profile="auto" lighting-color="rgb(255, 255, 255)" color="rgb(0, 0, 0)" font-weight="400" alignment-baseline="auto" font-style="normal" version="1.1" color-interpolation-filters="linearrgb" text-anchor="start" stroke-linecap="butt" color-interpolation="srgb" font-variant="normal" word-spacing="normal" fill-opacity="1" text-rendering="auto" clip-path="none" text-decoration="none" letter-spacing="normal" viewBox="0 0 103.52195 112.69999" glyph-orientation-vertical="auto" display="inline" font-size-adjust="none" overflow="visible" fill="rgb(0, 0, 0)" font-stretch="normal" stroke-dasharray="none" inkscape:version="1.0 (4035a4fb49, 2020-05-01)" id="svg10.Layer_1" stroke-miterlimit="4" stop-opacity="1" color-rendering="auto" font-size="12" pointer-events="visiblepainted" mask="none" direction="ltr" baseline-shift="baseline" sodipodi:docname="Grafana_logo.svg" enable-background="accumulate" fill-rule="nonzero" image-rendering="auto" stroke-dashoffset="0" marker-end="none" width="145.29396" clip="auto" cursor="auto" stroke="none" filter="none" visibility="visible" kerning="auto" stroke-width="1" font-family="&quot;Arial&quot;,&quot;Helvetica&quot;,sans-serif" flood-opacity="1" clip-rule="nonzero" src="none" height="157.90384" unicode-bidi="normal" stroke-linejoin="miter" stroke-opacity="1" flood-color="rgb(0, 0, 0)" dominant-baseline="auto" marker-start="none" marker-mid="none" x="0px" y="0px"><metadata id="svg10.metadata904"/><defs id="svg10.defs902"/>
<style type="text/css" id="svg10.style874">
	.st0{fill:#565656;}
	.st1{fill:url(#SVGID_1_);}
</style>

<linearGradient gradientTransform="matrix(1,0,0,-1,-19.522549,148.6)" x1="71.25" gradientUnits="userSpaceOnUse" x2="71.25" y1="10.4893" y2="113.3415" id="svg10.SVGID_1_">
	<stop style="stop-color:#FCEE1F" offset="0" id="svg10.stop892"/>
	<stop style="stop-color:#F15B2A" offset="1" id="svg10.stop894"/>
</linearGradient>
<path id="svg10.path897" d="m 103.37745,49.9 c -0.2,-1.9 -0.5,-4.1 -1.1,-6.5 -0.6,-2.4 -1.6,-5 -2.899999,-7.8 -1.4,-2.7 -3.1,-5.6 -5.4,-8.3 -0.9,-1.1 -1.9,-2.1 -2.9,-3.2 1.6,-6.3 -1.9,-11.8 -1.9,-11.8 -6.1,-0.4 -9.9,1.9 -11.3,2.9 -0.2,-0.1 -0.5,-0.2 -0.7,-0.3 -1,-0.4 -2.1,-0.8 -3.2,-1.2 -1.1,-0.3 -2.2,-0.7 -3.3,-0.9 -1.1,-0.3 -2.3,-0.5 -3.5,-0.7 -0.2,0 -0.4,-0.1 -0.6,-0.1 -2.6,-8.4 -10.2,-12 -10.2,-12 -8.7,5.6 -10.4,13.1 -10.4,13.1 0,0 0,0.2 -0.1,0.4 -0.5,0.1 -0.9,0.3 -1.4,0.4 -0.6,0.2 -1.3,0.4 -1.9,0.7 -0.6,0.3 -1.3,0.5 -1.9,0.8 -1.3,0.6 -2.5,1.2 -3.8,1.9 -1.2,0.7 -2.4,1.4 -3.5,2.2 -0.2,-0.1 -0.3,-0.2 -0.3,-0.2 -11.7,-4.5 -22.1,0.9 -22.1,0.9 -0.9,12.5 4.7,20.3 5.8,21.7 -0.3,0.8 -0.5,1.5 -0.8,2.3 -0.9,2.8 -1.5,5.7 -1.9,8.7 -0.1,0.4 -0.1,0.9 -0.2,1.3 -10.8,5.3 -14.00000002,16.3 -14.00000002,16.3 9.00000002,10.4 19.60000002,11 19.60000002,11 v 0 c 1.3,2.4 2.9,4.7 4.6,6.8 0.7,0.9 1.5,1.7 2.3,2.6 -3.3,9.4 0.5,17.3 0.5,17.3 10.1,0.4 16.7,-4.4 18.1,-5.5 1,0.3 2,0.6 3,0.9 3.1,0.8 6.3,1.3 9.4,1.4 0.8,0 1.6,0 2.4,0 h 0.4 0.3 0.5 0.5 v 0 c 4.7,6.8 13.1,7.7 13.1,7.7 5.9,-6.3 6.3,-12.4 6.3,-13.8 v 0 c 0,0 0,0 0,-0.1 0,-0.1 0,-0.2 0,-0.2 v 0 c 0,-0.1 0,-0.2 0,-0.3 1.2,-0.9 2.4,-1.8 3.6,-2.8 2.4,-2.1 4.4,-4.6 6.2,-7.2 0.2,-0.2 0.3,-0.5 0.5,-0.7 6.7,0.4 11.399999,-4.2 11.399999,-4.2 -1.1,-7 -5.099999,-10.4 -5.899999,-11 v 0 c 0,0 0,0 -0.1,-0.1 l -0.1,-0.1 v 0 l -0.1,-0.1 c 0,-0.4 0.1,-0.8 0.1,-1.3 0.1,-0.8 0.1,-1.5 0.1,-2.3 v -0.6 -0.3 -0.1 c 0,-0.2 0,-0.1 0,-0.2 v -0.5 -0.6 c 0,-0.2 0,-0.4 0,-0.6 0,-0.2 0,-0.4 -0.1,-0.6 l -0.1,-0.6 -0.1,-0.6 c -0.1,-0.8 -0.3,-1.5 -0.4,-2.3 -0.7,-3 -1.9,-5.9 -3.4,-8.4 -1.6,-2.6 -3.5,-4.8 -5.7,-6.8 -2.2,-1.9 -4.6,-3.5 -7.2,-4.6 -2.6,-1.2 -5.2,-1.9 -7.9,-2.2 -1.3,-0.2 -2.7,-0.2 -4,-0.2 h -0.5 -0.1 -0.2 -0.2 -0.5 c -0.2,0 -0.4,0 -0.5,0 -0.7,0.1 -1.4,0.2 -2,0.3 -2.7,0.5 -5.2,1.5 -7.4,2.8 -2.2,1.3 -4.1,3 -5.7,4.9 -1.6,1.9 -2.8,3.9 -3.6,6.1 -0.8,2.1 -1.3,4.4 -1.4,6.5 0,0.5 0,1.1 0,1.6 0,0.1 0,0.3 0,0.4 v 0.4 c 0,0.3 0,0.5 0.1,0.8 0.1,1.1 0.3,2.1 0.6,3.1 0.6,2 1.5,3.8 2.7,5.4 1.2,1.6 2.5,2.8 4,3.8 1.5,1 3,1.7 4.6,2.2 1.6,0.5 3.1,0.7 4.5,0.6 0.2,0 0.4,0 0.5,0 0.1,0 0.2,0 0.3,0 0.1,0 0.2,0 0.3,0 0.2,0 0.3,0 0.5,0 h 0.1 0.1 c 0.1,0 0.2,0 0.3,0 0.2,0 0.4,-0.1 0.5,-0.1 0.2,0 0.3,-0.1 0.5,-0.1 0.3,-0.1 0.7,-0.2 1,-0.3 0.6,-0.2 1.2,-0.5 1.8,-0.7 0.6,-0.3 1.1,-0.6 1.5,-0.9 0.1,-0.1 0.3,-0.2 0.4,-0.3 0.5,-0.4 0.6,-1.1 0.2,-1.6 -0.4,-0.4 -1,-0.5 -1.5,-0.3 -0.1,0.1 -0.2,0.1 -0.4,0.2 -0.4,0.2 -0.9,0.4 -1.3,0.5 -0.5,0.1 -1,0.3 -1.5,0.4 -0.3,0 -0.5,0.1 -0.8,0.1 -0.1,0 -0.3,0 -0.4,0 -0.1,0 -0.3,0 -0.4,0 -0.1,0 -0.3,0 -0.4,0 -0.2,0 -0.3,0 -0.5,0 0,0 -0.1,0 0,0 h -0.1 -0.1 c -0.1,0 -0.1,0 -0.2,0 -0.1,0 -0.3,0 -0.4,-0.1 -1.1,-0.2 -2.3,-0.5 -3.4,-1 -1.1,-0.5 -2.2,-1.2 -3.1,-2.1 -1,-0.9 -1.8,-1.9 -2.5,-3.1 -0.7,-1.2 -1.1,-2.5 -1.3,-3.8 -0.1,-0.7 -0.2,-1.4 -0.1,-2.1 0,-0.2 0,-0.4 0,-0.6 0,0.1 0,0 0,0 v -0.1 -0.1 c 0,-0.1 0,-0.2 0,-0.3 0,-0.4 0.1,-0.7 0.2,-1.1 0.5,-3 2,-5.9 4.3,-8.1 0.6,-0.6 1.2,-1.1 1.9,-1.5 0.7,-0.5 1.4,-0.9 2.1,-1.2 0.7,-0.3 1.5,-0.6 2.3,-0.8 0.8,-0.2 1.6,-0.4 2.4,-0.4 0.4,0 0.8,-0.1 1.2,-0.1 0.1,0 0.2,0 0.3,0 h 0.3 0.2 c 0.1,0 0,0 0,0 h 0.1 0.3 c 0.9,0.1 1.8,0.2 2.6,0.4 1.7,0.4 3.4,1 5,1.9 3.2,1.8 5.9,4.5 7.5,7.8 0.8,1.6 1.4,3.4 1.7,5.3 0.1,0.5 0.1,0.9 0.2,1.4 v 0.3 0.3 c 0,0.1 0,0.2 0,0.3 0,0.1 0,0.2 0,0.3 v 0.3 0.3 c 0,0.2 0,0.6 0,0.8 0,0.5 -0.1,1 -0.1,1.5 -0.1,0.5 -0.1,1 -0.2,1.5 -0.1,0.5 -0.2,1 -0.3,1.5 -0.2,1 -0.6,1.9 -0.9,2.9 -0.7,1.9 -1.7,3.7 -2.9,5.3 -2.4,3.3 -5.7,6 -9.4,7.7 -1.9,0.8 -3.8,1.5 -5.8,1.8 -1,0.2 -2,0.3 -3,0.3 h -0.2 -0.2 -0.3 -0.5 -0.3 c 0.1,0 0,0 0,0 h -0.1 c -0.5,0 -1.1,0 -1.6,-0.1 -2.2,-0.2 -4.3,-0.6 -6.4,-1.2 -2.1,-0.6 -4.1,-1.4 -6,-2.4 -3.8,-2 -7.2,-4.9 -9.9,-8.2 -1.3,-1.7 -2.5,-3.5 -3.5,-5.4 -1,-1.9 -1.7,-3.9 -2.3,-5.9 -0.6,-2 -0.9,-4.1 -1,-6.2 V 60.7 60.6 60.5 60.3 60 59.9 59.8 59.6 59.1 59 59 58.8 c 0,-0.3 0,-0.5 0,-0.8 0,-1 0.1,-2.1 0.3,-3.2 0.1,-1.1 0.3,-2.1 0.5,-3.2 0.2,-1.1 0.5,-2.1 0.8,-3.2 0.6,-2.1 1.3,-4.1 2.2,-6 1.8,-3.8 4.1,-7.2 6.8,-9.9 0.7,-0.7 1.4,-1.3 2.2,-1.9 0.3,-0.3 1,-0.9 1.8,-1.4 0.8,-0.5 1.6,-1 2.5,-1.4 0.4,-0.2 0.8,-0.4 1.3,-0.6 0.2,-0.1 0.4,-0.2 0.7,-0.3 0.2,-0.1 0.4,-0.2 0.7,-0.3 0.9,-0.4 1.8,-0.7 2.7,-1 0.2,-0.1 0.5,-0.1 0.7,-0.2 0.2,-0.1 0.5,-0.1 0.7,-0.2 0.5,-0.1 0.9,-0.2 1.4,-0.4 0.2,-0.1 0.5,-0.1 0.7,-0.2 0.2,0 0.5,-0.1 0.7,-0.1 0.2,0 0.5,-0.1 0.7,-0.1 l 0.4,-0.1 0.4,-0.1 c 0.2,0 0.5,-0.1 0.7,-0.1 0.3,0 0.5,-0.1 0.8,-0.1 0.2,0 0.6,-0.1 0.8,-0.1 0.2,0 0.3,0 0.5,-0.1 h 0.3 0.2 0.2 c 0.3,0 0.5,0 0.8,-0.1 h 0.4 c 0,0 0.1,0 0,0 h 0.1 0.2 c 0.2,0 0.5,0 0.7,0 0.9,0 1.8,0 2.7,0 1.8,0.1 3.6,0.3 5.3,0.6 3.4,0.6 6.7,1.7 9.6,3.2 2.9,1.4 5.6,3.2 7.8,5.1 0.1,0.1 0.3,0.2 0.4,0.4 0.1,0.1 0.3,0.2 0.4,0.4 0.3,0.2 0.5,0.5 0.8,0.7 0.3,0.2 0.5,0.5 0.8,0.7 0.2,0.3 0.5,0.5 0.7,0.8 1,1 1.9,2.1 2.7,3.1 1.6,2.1 2.9,4.2 3.9,6.2 0.1,0.1 0.1,0.2 0.2,0.4 0.1,0.1 0.1,0.2 0.2,0.4 0.1,0.2 0.2,0.5 0.4,0.7 0.1,0.2 0.2,0.5 0.3,0.7 0.1,0.2 0.2,0.5 0.3,0.7 0.399999,0.9 0.699999,1.8 0.999999,2.7 0.5,1.4 0.8,2.6 1.1,3.6 0.1,0.4 0.5,0.7 0.9,0.7 0.5,0 0.8,-0.4 0.8,-0.9 -0.1,-1.2 -0.1,-2.5 -0.2,-4 z" style="fill:url(#svg10.SVGID_1_)" class="st1"/>
</svg>
      </g>
    </g>
    <g fill="silver" text-rendering="geometricPrecision" shape-rendering="geometricPrecision" transform="matrix(1,0,0,1,-286,-74)" stroke="silver">
      <path d="M725.7208 106.5131 L798.7317 106.5131 L806.844 137.9131 L798.7317 169.3131 L725.7208 169.3131 L733.8331 137.9131 Z" fill-rule="evenodd" clip-path="url(#clipPath2)" stroke="none"/>
    </g>
    <g text-rendering="geometricPrecision" stroke-miterlimit="1.45" shape-rendering="geometricPrecision" transform="matrix(1,0,0,1,-286,-74)" stroke-linecap="butt">
      <path fill="none" d="M725.7208 106.5131 L798.7317 106.5131 L806.844 137.9131 L798.7317 169.3131 L725.7208 169.3131 L733.8331 137.9131 Z" fill-rule="evenodd" clip-path="url(#clipPath2)"/>
      <text x="753.4943" font-size="10px" y="122.5668" clip-path="url(#clipPath2)" font-family="sans-serif" stroke="none" xml:space="preserve">Learn</text>
      <text x="747.6667" font-size="10px" y="134.8178" clip-path="url(#clipPath2)" font-family="sans-serif" stroke="none" xml:space="preserve">PromQL</text>
    </g>
    <g text-rendering="geometricPrecision" shape-rendering="geometricPrecision" transform="matrix(0.1163,0,0,0.1163,460.2004,76.5211)">
      <g clip-path="url(#clipPath14)">
        <svg xmlns:svg="http://www.w3.org/2000/svg" xmlns:sodipodi="http://sodipodi.sourceforge.net/DTD/sodipodi-0.dtd" xmlns:inkscape="http://www.inkscape.org/namespaces/inkscape" xmlns:dc="http://purl.org/dc/elements/1.1/" xmlns:cc="http://creativecommons.org/ns#" xmlns:rdf="http://www.w3.org/1999/02/22-rdf-syntax-ns#" xml:space="preserve" opacity="1" writing-mode="lr-tb" stop-color="rgb(0, 0, 0)" shape-rendering="auto" glyph-orientation-horizontal="0deg" color-profile="auto" lighting-color="rgb(255, 255, 255)" color="rgb(0, 0, 0)" font-weight="400" alignment-baseline="auto" font-style="normal" version="1.1" color-interpolation-filters="linearrgb" text-anchor="start" stroke-linecap="butt" color-interpolation="srgb" font-variant="normal" word-spacing="normal" fill-opacity="1" text-rendering="auto" clip-path="none" text-decoration="none" letter-spacing="normal" viewBox="0 0 115.333 114" glyph-orientation-vertical="auto" display="inline" font-size-adjust="none" overflow="visible" fill="rgb(0, 0, 0)" font-stretch="normal" stroke-dasharray="none" inkscape:version="0.92.1 r15371" id="svg11.Layer_1" stroke-miterlimit="4" stop-opacity="1" color-rendering="auto" font-size="12" pointer-events="visiblepainted" mask="none" direction="ltr" baseline-shift="baseline" sodipodi:docname="prometheus_logo_orange.svg" enable-background="new 0 0 115.333 114" fill-rule="nonzero" image-rendering="auto" stroke-dashoffset="0" marker-end="none" width="115.333px" clip="auto" cursor="auto" stroke="none" filter="none" visibility="visible" kerning="auto" stroke-width="1" font-family="&quot;Arial&quot;,&quot;Helvetica&quot;,sans-serif" flood-opacity="1" clip-rule="nonzero" src="none" height="114px" unicode-bidi="normal" stroke-linejoin="miter" stroke-opacity="1" flood-color="rgb(0, 0, 0)" dominant-baseline="auto" marker-start="none" marker-mid="none" x="0px" y="0px"><metadata id="svg11.metadata4495"/><defs id="svg11.defs4493"/><g id="svg11.Layer_2"/><path d="M 56.667,0.667 C 25.372,0.667 0,26.036 0,57.332 c 0,31.295 25.372,56.666 56.667,56.666 31.295,0 56.666,-25.371 56.666,-56.666 0,-31.296 -25.372,-56.665 -56.666,-56.665 z m 0,106.055 c -8.904,0 -16.123,-5.948 -16.123,-13.283 H 72.79 c 0,7.334 -7.219,13.283 -16.123,13.283 z M 83.297,89.04 H 30.034 V 79.382 H 83.298 V 89.04 Z M 83.106,74.411 H 30.186 C 30.01,74.208 29.83,74.008 29.66,73.802 24.208,67.182 22.924,63.726 21.677,60.204 c -0.021,-0.116 6.611,1.355 11.314,2.413 0,0 2.42,0.56 5.958,1.205 -3.397,-3.982 -5.414,-9.044 -5.414,-14.218 0,-11.359 8.712,-21.285 5.569,-29.308 3.059,0.249 6.331,6.456 6.552,16.161 3.252,-4.494 4.613,-12.701 4.613,-17.733 0,-5.21 3.433,-11.262 6.867,-11.469 -3.061,5.045 0.793,9.37 4.219,20.099 1.285,4.03 1.121,10.812 2.113,15.113 C 63.797,33.534 65.333,20.5 71,16 c -2.5,5.667 0.37,12.758 2.333,16.167 3.167,5.5 5.087,9.667 5.087,17.548 0,5.284 -1.951,10.259 -5.242,14.148 3.742,-0.702 6.326,-1.335 6.326,-1.335 l 12.152,-2.371 c 10e-4,-10e-4 -1.765,7.261 -8.55,14.254 z" id="svg11.path4486" inkscape:connector-curvature="0" style="fill:#e6522c;fill-opacity:1"/></svg>
      </g>
    </g>
    <g fill="silver" text-rendering="geometricPrecision" shape-rendering="geometricPrecision" transform="matrix(1,0,0,1,-286,-74)" stroke="silver">
      <path d="M803.1616 106.5131 L935.2816 106.5131 L949.9616 137.9131 L935.2816 169.3131 L803.1616 169.3131 L817.8416 137.9131 Z" fill-rule="evenodd" clip-path="url(#clipPath2)" stroke="none"/>
    </g>
    <g text-rendering="geometricPrecision" stroke-miterlimit="1.45" shape-rendering="geometricPrecision" transform="matrix(1,0,0,1,-286,-74)" stroke-linecap="butt">
      <path fill="none" d="M803.1616 106.5131 L935.2816 106.5131 L949.9616 137.9131 L935.2816 169.3131 L803.1616 169.3131 L817.8416 137.9131 Z" fill-rule="evenodd" clip-path="url(#clipPath2)"/>
      <text x="838.2022" font-size="10px" y="122.5668" clip-path="url(#clipPath2)" font-family="sans-serif" stroke="none" xml:space="preserve">Learn how to use</text>
      <text x="830.6998" font-size="10px" y="134.8178" clip-path="url(#clipPath2)" font-family="sans-serif" stroke="none" xml:space="preserve">existing dashboards,</text>
      <text x="829.3204" font-size="10px" y="147.0688" clip-path="url(#clipPath2)" font-family="sans-serif" stroke="none" xml:space="preserve">modify them &amp; create</text>
      <text x="844.0421" font-size="10px" y="159.3197" clip-path="url(#clipPath2)" font-family="sans-serif" stroke="none" xml:space="preserve">your own ones</text>
    </g>
    <g text-rendering="geometricPrecision" shape-rendering="geometricPrecision" transform="matrix(0.0833,0,0,0.0833,536.6516,76.6106)">
      <g clip-path="url(#clipPath15)">
        <svg xmlns:svg="http://www.w3.org/2000/svg" xmlns:sodipodi="http://sodipodi.sourceforge.net/DTD/sodipodi-0.dtd" xmlns:inkscape="http://www.inkscape.org/namespaces/inkscape" xmlns:dc="http://purl.org/dc/elements/1.1/" xmlns:cc="http://creativecommons.org/ns#" xmlns:rdf="http://www.w3.org/1999/02/22-rdf-syntax-ns#" xml:space="preserve" opacity="1" writing-mode="lr-tb" stop-color="rgb(0, 0, 0)" shape-rendering="auto" glyph-orientation-horizontal="0deg" color-profile="auto" lighting-color="rgb(255, 255, 255)" color="rgb(0, 0, 0)" font-weight="400" alignment-baseline="auto" font-style="normal" version="1.1" color-interpolation-filters="linearrgb" text-anchor="start" stroke-linecap="butt" color-interpolation="srgb" font-variant="normal" word-spacing="normal" fill-opacity="1" text-rendering="auto" clip-path="none" text-decoration="none" letter-spacing="normal" viewBox="0 0 103.52195 112.69999" glyph-orientation-vertical="auto" display="inline" font-size-adjust="none" overflow="visible" fill="rgb(0, 0, 0)" font-stretch="normal" stroke-dasharray="none" inkscape:version="1.0 (4035a4fb49, 2020-05-01)" id="svg12.Layer_1" stroke-miterlimit="4" stop-opacity="1" color-rendering="auto" font-size="12" pointer-events="visiblepainted" mask="none" direction="ltr" baseline-shift="baseline" sodipodi:docname="Grafana_logo.svg" enable-background="accumulate" fill-rule="nonzero" image-rendering="auto" stroke-dashoffset="0" marker-end="none" width="145.29396" clip="auto" cursor="auto" stroke="none" filter="none" visibility="visible" kerning="auto" stroke-width="1" font-family="&quot;Arial&quot;,&quot;Helvetica&quot;,sans-serif" flood-opacity="1" clip-rule="nonzero" src="none" height="157.90384" unicode-bidi="normal" stroke-linejoin="miter" stroke-opacity="1" flood-color="rgb(0, 0, 0)" dominant-baseline="auto" marker-start="none" marker-mid="none" x="0px" y="0px"><metadata id="svg12.metadata904"/><defs id="svg12.defs902"/>
<style type="text/css" id="svg12.style874">
	.st0{fill:#565656;}
	.st1{fill:url(#SVGID_1_);}
</style>

<linearGradient gradientTransform="matrix(1,0,0,-1,-19.522549,148.6)" x1="71.25" gradientUnits="userSpaceOnUse" x2="71.25" y1="10.4893" y2="113.3415" id="svg12.SVGID_1_">
	<stop style="stop-color:#FCEE1F" offset="0" id="svg12.stop892"/>
	<stop style="stop-color:#F15B2A" offset="1" id="svg12.stop894"/>
</linearGradient>
<path id="svg12.path897" d="m 103.37745,49.9 c -0.2,-1.9 -0.5,-4.1 -1.1,-6.5 -0.6,-2.4 -1.6,-5 -2.899999,-7.8 -1.4,-2.7 -3.1,-5.6 -5.4,-8.3 -0.9,-1.1 -1.9,-2.1 -2.9,-3.2 1.6,-6.3 -1.9,-11.8 -1.9,-11.8 -6.1,-0.4 -9.9,1.9 -11.3,2.9 -0.2,-0.1 -0.5,-0.2 -0.7,-0.3 -1,-0.4 -2.1,-0.8 -3.2,-1.2 -1.1,-0.3 -2.2,-0.7 -3.3,-0.9 -1.1,-0.3 -2.3,-0.5 -3.5,-0.7 -0.2,0 -0.4,-0.1 -0.6,-0.1 -2.6,-8.4 -10.2,-12 -10.2,-12 -8.7,5.6 -10.4,13.1 -10.4,13.1 0,0 0,0.2 -0.1,0.4 -0.5,0.1 -0.9,0.3 -1.4,0.4 -0.6,0.2 -1.3,0.4 -1.9,0.7 -0.6,0.3 -1.3,0.5 -1.9,0.8 -1.3,0.6 -2.5,1.2 -3.8,1.9 -1.2,0.7 -2.4,1.4 -3.5,2.2 -0.2,-0.1 -0.3,-0.2 -0.3,-0.2 -11.7,-4.5 -22.1,0.9 -22.1,0.9 -0.9,12.5 4.7,20.3 5.8,21.7 -0.3,0.8 -0.5,1.5 -0.8,2.3 -0.9,2.8 -1.5,5.7 -1.9,8.7 -0.1,0.4 -0.1,0.9 -0.2,1.3 -10.8,5.3 -14.00000002,16.3 -14.00000002,16.3 9.00000002,10.4 19.60000002,11 19.60000002,11 v 0 c 1.3,2.4 2.9,4.7 4.6,6.8 0.7,0.9 1.5,1.7 2.3,2.6 -3.3,9.4 0.5,17.3 0.5,17.3 10.1,0.4 16.7,-4.4 18.1,-5.5 1,0.3 2,0.6 3,0.9 3.1,0.8 6.3,1.3 9.4,1.4 0.8,0 1.6,0 2.4,0 h 0.4 0.3 0.5 0.5 v 0 c 4.7,6.8 13.1,7.7 13.1,7.7 5.9,-6.3 6.3,-12.4 6.3,-13.8 v 0 c 0,0 0,0 0,-0.1 0,-0.1 0,-0.2 0,-0.2 v 0 c 0,-0.1 0,-0.2 0,-0.3 1.2,-0.9 2.4,-1.8 3.6,-2.8 2.4,-2.1 4.4,-4.6 6.2,-7.2 0.2,-0.2 0.3,-0.5 0.5,-0.7 6.7,0.4 11.399999,-4.2 11.399999,-4.2 -1.1,-7 -5.099999,-10.4 -5.899999,-11 v 0 c 0,0 0,0 -0.1,-0.1 l -0.1,-0.1 v 0 l -0.1,-0.1 c 0,-0.4 0.1,-0.8 0.1,-1.3 0.1,-0.8 0.1,-1.5 0.1,-2.3 v -0.6 -0.3 -0.1 c 0,-0.2 0,-0.1 0,-0.2 v -0.5 -0.6 c 0,-0.2 0,-0.4 0,-0.6 0,-0.2 0,-0.4 -0.1,-0.6 l -0.1,-0.6 -0.1,-0.6 c -0.1,-0.8 -0.3,-1.5 -0.4,-2.3 -0.7,-3 -1.9,-5.9 -3.4,-8.4 -1.6,-2.6 -3.5,-4.8 -5.7,-6.8 -2.2,-1.9 -4.6,-3.5 -7.2,-4.6 -2.6,-1.2 -5.2,-1.9 -7.9,-2.2 -1.3,-0.2 -2.7,-0.2 -4,-0.2 h -0.5 -0.1 -0.2 -0.2 -0.5 c -0.2,0 -0.4,0 -0.5,0 -0.7,0.1 -1.4,0.2 -2,0.3 -2.7,0.5 -5.2,1.5 -7.4,2.8 -2.2,1.3 -4.1,3 -5.7,4.9 -1.6,1.9 -2.8,3.9 -3.6,6.1 -0.8,2.1 -1.3,4.4 -1.4,6.5 0,0.5 0,1.1 0,1.6 0,0.1 0,0.3 0,0.4 v 0.4 c 0,0.3 0,0.5 0.1,0.8 0.1,1.1 0.3,2.1 0.6,3.1 0.6,2 1.5,3.8 2.7,5.4 1.2,1.6 2.5,2.8 4,3.8 1.5,1 3,1.7 4.6,2.2 1.6,0.5 3.1,0.7 4.5,0.6 0.2,0 0.4,0 0.5,0 0.1,0 0.2,0 0.3,0 0.1,0 0.2,0 0.3,0 0.2,0 0.3,0 0.5,0 h 0.1 0.1 c 0.1,0 0.2,0 0.3,0 0.2,0 0.4,-0.1 0.5,-0.1 0.2,0 0.3,-0.1 0.5,-0.1 0.3,-0.1 0.7,-0.2 1,-0.3 0.6,-0.2 1.2,-0.5 1.8,-0.7 0.6,-0.3 1.1,-0.6 1.5,-0.9 0.1,-0.1 0.3,-0.2 0.4,-0.3 0.5,-0.4 0.6,-1.1 0.2,-1.6 -0.4,-0.4 -1,-0.5 -1.5,-0.3 -0.1,0.1 -0.2,0.1 -0.4,0.2 -0.4,0.2 -0.9,0.4 -1.3,0.5 -0.5,0.1 -1,0.3 -1.5,0.4 -0.3,0 -0.5,0.1 -0.8,0.1 -0.1,0 -0.3,0 -0.4,0 -0.1,0 -0.3,0 -0.4,0 -0.1,0 -0.3,0 -0.4,0 -0.2,0 -0.3,0 -0.5,0 0,0 -0.1,0 0,0 h -0.1 -0.1 c -0.1,0 -0.1,0 -0.2,0 -0.1,0 -0.3,0 -0.4,-0.1 -1.1,-0.2 -2.3,-0.5 -3.4,-1 -1.1,-0.5 -2.2,-1.2 -3.1,-2.1 -1,-0.9 -1.8,-1.9 -2.5,-3.1 -0.7,-1.2 -1.1,-2.5 -1.3,-3.8 -0.1,-0.7 -0.2,-1.4 -0.1,-2.1 0,-0.2 0,-0.4 0,-0.6 0,0.1 0,0 0,0 v -0.1 -0.1 c 0,-0.1 0,-0.2 0,-0.3 0,-0.4 0.1,-0.7 0.2,-1.1 0.5,-3 2,-5.9 4.3,-8.1 0.6,-0.6 1.2,-1.1 1.9,-1.5 0.7,-0.5 1.4,-0.9 2.1,-1.2 0.7,-0.3 1.5,-0.6 2.3,-0.8 0.8,-0.2 1.6,-0.4 2.4,-0.4 0.4,0 0.8,-0.1 1.2,-0.1 0.1,0 0.2,0 0.3,0 h 0.3 0.2 c 0.1,0 0,0 0,0 h 0.1 0.3 c 0.9,0.1 1.8,0.2 2.6,0.4 1.7,0.4 3.4,1 5,1.9 3.2,1.8 5.9,4.5 7.5,7.8 0.8,1.6 1.4,3.4 1.7,5.3 0.1,0.5 0.1,0.9 0.2,1.4 v 0.3 0.3 c 0,0.1 0,0.2 0,0.3 0,0.1 0,0.2 0,0.3 v 0.3 0.3 c 0,0.2 0,0.6 0,0.8 0,0.5 -0.1,1 -0.1,1.5 -0.1,0.5 -0.1,1 -0.2,1.5 -0.1,0.5 -0.2,1 -0.3,1.5 -0.2,1 -0.6,1.9 -0.9,2.9 -0.7,1.9 -1.7,3.7 -2.9,5.3 -2.4,3.3 -5.7,6 -9.4,7.7 -1.9,0.8 -3.8,1.5 -5.8,1.8 -1,0.2 -2,0.3 -3,0.3 h -0.2 -0.2 -0.3 -0.5 -0.3 c 0.1,0 0,0 0,0 h -0.1 c -0.5,0 -1.1,0 -1.6,-0.1 -2.2,-0.2 -4.3,-0.6 -6.4,-1.2 -2.1,-0.6 -4.1,-1.4 -6,-2.4 -3.8,-2 -7.2,-4.9 -9.9,-8.2 -1.3,-1.7 -2.5,-3.5 -3.5,-5.4 -1,-1.9 -1.7,-3.9 -2.3,-5.9 -0.6,-2 -0.9,-4.1 -1,-6.2 V 60.7 60.6 60.5 60.3 60 59.9 59.8 59.6 59.1 59 59 58.8 c 0,-0.3 0,-0.5 0,-0.8 0,-1 0.1,-2.1 0.3,-3.2 0.1,-1.1 0.3,-2.1 0.5,-3.2 0.2,-1.1 0.5,-2.1 0.8,-3.2 0.6,-2.1 1.3,-4.1 2.2,-6 1.8,-3.8 4.1,-7.2 6.8,-9.9 0.7,-0.7 1.4,-1.3 2.2,-1.9 0.3,-0.3 1,-0.9 1.8,-1.4 0.8,-0.5 1.6,-1 2.5,-1.4 0.4,-0.2 0.8,-0.4 1.3,-0.6 0.2,-0.1 0.4,-0.2 0.7,-0.3 0.2,-0.1 0.4,-0.2 0.7,-0.3 0.9,-0.4 1.8,-0.7 2.7,-1 0.2,-0.1 0.5,-0.1 0.7,-0.2 0.2,-0.1 0.5,-0.1 0.7,-0.2 0.5,-0.1 0.9,-0.2 1.4,-0.4 0.2,-0.1 0.5,-0.1 0.7,-0.2 0.2,0 0.5,-0.1 0.7,-0.1 0.2,0 0.5,-0.1 0.7,-0.1 l 0.4,-0.1 0.4,-0.1 c 0.2,0 0.5,-0.1 0.7,-0.1 0.3,0 0.5,-0.1 0.8,-0.1 0.2,0 0.6,-0.1 0.8,-0.1 0.2,0 0.3,0 0.5,-0.1 h 0.3 0.2 0.2 c 0.3,0 0.5,0 0.8,-0.1 h 0.4 c 0,0 0.1,0 0,0 h 0.1 0.2 c 0.2,0 0.5,0 0.7,0 0.9,0 1.8,0 2.7,0 1.8,0.1 3.6,0.3 5.3,0.6 3.4,0.6 6.7,1.7 9.6,3.2 2.9,1.4 5.6,3.2 7.8,5.1 0.1,0.1 0.3,0.2 0.4,0.4 0.1,0.1 0.3,0.2 0.4,0.4 0.3,0.2 0.5,0.5 0.8,0.7 0.3,0.2 0.5,0.5 0.8,0.7 0.2,0.3 0.5,0.5 0.7,0.8 1,1 1.9,2.1 2.7,3.1 1.6,2.1 2.9,4.2 3.9,6.2 0.1,0.1 0.1,0.2 0.2,0.4 0.1,0.1 0.1,0.2 0.2,0.4 0.1,0.2 0.2,0.5 0.4,0.7 0.1,0.2 0.2,0.5 0.3,0.7 0.1,0.2 0.2,0.5 0.3,0.7 0.399999,0.9 0.699999,1.8 0.999999,2.7 0.5,1.4 0.8,2.6 1.1,3.6 0.1,0.4 0.5,0.7 0.9,0.7 0.5,0 0.8,-0.4 0.8,-0.9 -0.1,-1.2 -0.1,-2.5 -0.2,-4 z" style="fill:url(#svg12.SVGID_1_)" class="st1"/>
</svg>
      </g>
    </g>
    <g fill="silver" text-rendering="geometricPrecision" shape-rendering="geometricPrecision" transform="matrix(1,0,0,1,-286,-74)" stroke="silver">
      <path d="M942.8484 106.5131 L1063.3793 106.5131 L1076.7716 137.9131 L1063.3793 169.3131 L942.8484 169.3131 L956.2407 137.9131 Z" fill-rule="evenodd" clip-path="url(#clipPath2)" stroke="none"/>
    </g>
    <g text-rendering="geometricPrecision" stroke-miterlimit="1.45" shape-rendering="geometricPrecision" transform="matrix(1,0,0,1,-286,-74)" stroke-linecap="butt">
      <path fill="none" d="M942.8484 106.5131 L1063.3793 106.5131 L1076.7716 137.9131 L1063.3793 169.3131 L942.8484 169.3131 L956.2407 137.9131 Z" fill-rule="evenodd" clip-path="url(#clipPath2)"/>
      <text x="964.2241" font-size="10px" y="122.5668" clip-path="url(#clipPath2)" font-family="sans-serif" stroke="none" xml:space="preserve">Learn how to build &amp;</text>
      <text x="975.9086" font-size="10px" y="134.8178" clip-path="url(#clipPath2)" font-family="sans-serif" stroke="none" xml:space="preserve">select alerts for</text>
      <text x="967.5761" font-size="10px" y="147.0688" clip-path="url(#clipPath2)" font-family="sans-serif" stroke="none" xml:space="preserve">third-party services</text>
    </g>
    <g text-rendering="geometricPrecision" shape-rendering="geometricPrecision" transform="matrix(0.1163,0,0,0.1163,676.7111,76.5535)">
      <g clip-path="url(#clipPath16)">
        <svg xmlns:svg="http://www.w3.org/2000/svg" xmlns:sodipodi="http://sodipodi.sourceforge.net/DTD/sodipodi-0.dtd" xmlns:inkscape="http://www.inkscape.org/namespaces/inkscape" xmlns:dc="http://purl.org/dc/elements/1.1/" xmlns:cc="http://creativecommons.org/ns#" xmlns:rdf="http://www.w3.org/1999/02/22-rdf-syntax-ns#" xml:space="preserve" opacity="1" writing-mode="lr-tb" stop-color="rgb(0, 0, 0)" shape-rendering="auto" glyph-orientation-horizontal="0deg" color-profile="auto" lighting-color="rgb(255, 255, 255)" color="rgb(0, 0, 0)" font-weight="400" alignment-baseline="auto" font-style="normal" version="1.1" color-interpolation-filters="linearrgb" text-anchor="start" stroke-linecap="butt" color-interpolation="srgb" font-variant="normal" word-spacing="normal" fill-opacity="1" text-rendering="auto" clip-path="none" text-decoration="none" letter-spacing="normal" viewBox="0 0 115.333 114" glyph-orientation-vertical="auto" display="inline" font-size-adjust="none" overflow="visible" fill="rgb(0, 0, 0)" font-stretch="normal" stroke-dasharray="none" inkscape:version="0.92.1 r15371" id="svg13.Layer_1" stroke-miterlimit="4" stop-opacity="1" color-rendering="auto" font-size="12" pointer-events="visiblepainted" mask="none" direction="ltr" baseline-shift="baseline" sodipodi:docname="prometheus_logo_orange.svg" enable-background="new 0 0 115.333 114" fill-rule="nonzero" image-rendering="auto" stroke-dashoffset="0" marker-end="none" width="115.333px" clip="auto" cursor="auto" stroke="none" filter="none" visibility="visible" kerning="auto" stroke-width="1" font-family="&quot;Arial&quot;,&quot;Helvetica&quot;,sans-serif" flood-opacity="1" clip-rule="nonzero" src="none" height="114px" unicode-bidi="normal" stroke-linejoin="miter" stroke-opacity="1" flood-color="rgb(0, 0, 0)" dominant-baseline="auto" marker-start="none" marker-mid="none" x="0px" y="0px"><metadata id="svg13.metadata4495"/><defs id="svg13.defs4493"/><g id="svg13.Layer_2"/><path d="M 56.667,0.667 C 25.372,0.667 0,26.036 0,57.332 c 0,31.295 25.372,56.666 56.667,56.666 31.295,0 56.666,-25.371 56.666,-56.666 0,-31.296 -25.372,-56.665 -56.666,-56.665 z m 0,106.055 c -8.904,0 -16.123,-5.948 -16.123,-13.283 H 72.79 c 0,7.334 -7.219,13.283 -16.123,13.283 z M 83.297,89.04 H 30.034 V 79.382 H 83.298 V 89.04 Z M 83.106,74.411 H 30.186 C 30.01,74.208 29.83,74.008 29.66,73.802 24.208,67.182 22.924,63.726 21.677,60.204 c -0.021,-0.116 6.611,1.355 11.314,2.413 0,0 2.42,0.56 5.958,1.205 -3.397,-3.982 -5.414,-9.044 -5.414,-14.218 0,-11.359 8.712,-21.285 5.569,-29.308 3.059,0.249 6.331,6.456 6.552,16.161 3.252,-4.494 4.613,-12.701 4.613,-17.733 0,-5.21 3.433,-11.262 6.867,-11.469 -3.061,5.045 0.793,9.37 4.219,20.099 1.285,4.03 1.121,10.812 2.113,15.113 C 63.797,33.534 65.333,20.5 71,16 c -2.5,5.667 0.37,12.758 2.333,16.167 3.167,5.5 5.087,9.667 5.087,17.548 0,5.284 -1.951,10.259 -5.242,14.148 3.742,-0.702 6.326,-1.335 6.326,-1.335 l 12.152,-2.371 c 10e-4,-10e-4 -1.765,7.261 -8.55,14.254 z" id="svg13.path4486" inkscape:connector-curvature="0" style="fill:#e6522c;fill-opacity:1"/></svg>
      </g>
    </g>
    <g text-rendering="geometricPrecision" shape-rendering="geometricPrecision" transform="matrix(0.1157,0,0,0.1157,693.9616,76.5539)">
      <g clip-path="url(#clipPath17)">
        <svg xmlns:svg="http://www.w3.org/2000/svg" xmlns:sodipodi="http://sodipodi.sourceforge.net/DTD/sodipodi-0.dtd" xmlns:inkscape="http://www.inkscape.org/namespaces/inkscape" xmlns:dc="http://purl.org/dc/elements/1.1/" xmlns:cc="http://creativecommons.org/ns#" xmlns:rdf="http://www.w3.org/1999/02/22-rdf-syntax-ns#" xml:space="preserve" opacity="1" writing-mode="lr-tb" stop-color="rgb(0, 0, 0)" shape-rendering="auto" glyph-orientation-horizontal="0deg" color-profile="auto" lighting-color="rgb(255, 255, 255)" color="rgb(0, 0, 0)" font-weight="400" alignment-baseline="auto" font-style="normal" version="1.1" color-interpolation-filters="linearrgb" text-anchor="start" stroke-linecap="butt" color-interpolation="srgb" font-variant="normal" word-spacing="normal" fill-opacity="1" text-rendering="auto" clip-path="none" text-decoration="none" letter-spacing="normal" viewBox="0 0 115.333 114" glyph-orientation-vertical="auto" display="inline" font-size-adjust="none" overflow="visible" fill="rgb(0, 0, 0)" font-stretch="normal" stroke-dasharray="none" inkscape:version="1.0 (4035a4fb49, 2020-05-01)" id="svg14.Layer_1" stroke-miterlimit="4" stop-opacity="1" color-rendering="auto" font-size="12" pointer-events="visiblepainted" mask="none" direction="ltr" baseline-shift="baseline" sodipodi:docname="Alert_Manager_logo.svg" enable-background="new 0 0 115.333 114" fill-rule="nonzero" image-rendering="auto" stroke-dashoffset="0" marker-end="none" width="115.333px" clip="auto" cursor="auto" stroke="none" filter="none" visibility="visible" kerning="auto" stroke-width="1" font-family="&quot;Arial&quot;,&quot;Helvetica&quot;,sans-serif" flood-opacity="1" clip-rule="nonzero" src="none" height="114px" unicode-bidi="normal" stroke-linejoin="miter" stroke-opacity="1" flood-color="rgb(0, 0, 0)" dominant-baseline="auto" marker-start="none" marker-mid="none" x="0px" y="0px"><metadata id="svg14.metadata4495"/><defs id="svg14.defs4493"/><g id="svg14.Layer_2"/><path d="M 56.667,0.667 C 25.372,0.667 0,26.036 0,57.332 c 0,31.295 25.372,56.666 56.667,56.666 31.295,0 56.666,-25.371 56.666,-56.666 0,-31.296 -25.372,-56.665 -56.666,-56.665 z m 0,106.055 c -8.904,0 -16.123,-5.948 -16.123,-13.283 H 72.79 c 0,7.334 -7.219,13.283 -16.123,13.283 z M 83.297,89.04 H 30.034 V 79.382 H 83.298 V 89.04 Z M 83.106,74.411 H 30.186 C 30.01,74.208 29.83,74.008 29.66,73.802 24.208,67.182 22.924,63.726 21.677,60.204 c -0.021,-0.116 6.611,1.355 11.314,2.413 0,0 2.42,0.56 5.958,1.205 -3.397,-3.982 -5.414,-9.044 -5.414,-14.218 0,-11.359 8.712,-21.285 5.569,-29.308 3.059,0.249 6.331,6.456 6.552,16.161 3.252,-4.494 4.613,-12.701 4.613,-17.733 0,-5.21 3.433,-11.262 6.867,-11.469 -3.061,5.045 0.793,9.37 4.219,20.099 1.285,4.03 1.121,10.812 2.113,15.113 C 63.797,33.534 65.333,20.5 71,16 c -2.5,5.667 0.37,12.758 2.333,16.167 3.167,5.5 5.087,9.667 5.087,17.548 0,5.284 -1.951,10.259 -5.242,14.148 3.742,-0.702 6.326,-1.335 6.326,-1.335 l 12.152,-2.371 c 10e-4,-10e-4 -1.765,7.261 -8.55,14.254 z" id="svg14.path4486" inkscape:connector-curvature="0" style="fill:#000039;fill-opacity:1"/></svg>
      </g>
    </g>
    <g fill="silver" text-rendering="geometricPrecision" shape-rendering="geometricPrecision" transform="matrix(1,0,0,1,-286,-74)" stroke="silver">
      <path d="M411.2661 287.8 L531.7969 287.8 L545.1893 319.2 L531.7969 350.6 L411.2661 350.6 L424.6584 319.2 Z" fill-rule="evenodd" clip-path="url(#clipPath2)" stroke="none"/>
    </g>
    <g text-rendering="geometricPrecision" stroke-miterlimit="1.45" shape-rendering="geometricPrecision" transform="matrix(1,0,0,1,-286,-74)" stroke-linecap="butt">
      <path fill="none" d="M411.2661 287.8 L531.7969 287.8 L545.1893 319.2 L531.7969 350.6 L411.2661 350.6 L424.6584 319.2 Z" fill-rule="evenodd" clip-path="url(#clipPath2)"/>
      <text x="447.9298" font-size="10px" y="304.7518" clip-path="url(#clipPath2)" font-family="sans-serif" stroke="none" xml:space="preserve">Get a general</text>
      <text x="440.9767" font-size="10px" y="317.0027" clip-path="url(#clipPath2)" font-family="sans-serif" stroke="none" xml:space="preserve">understanding of</text>
      <text x="446.8873" font-size="10px" y="329.2537" clip-path="url(#clipPath2)" font-family="sans-serif" stroke="none" xml:space="preserve">"observability"</text>
      <text x="433.7623" font-size="10px" y="341.5047" clip-path="url(#clipPath2)" font-family="sans-serif" stroke="none" xml:space="preserve">(or define your own)</text>
    </g>
    <g fill="silver" text-rendering="geometricPrecision" shape-rendering="geometricPrecision" transform="matrix(1,0,0,1,-286,-74)" stroke="silver">
      <path d="M540.3173 287.8 L672.4373 287.8 L687.1173 319.2 L672.4373 350.6 L540.3173 350.6 L554.9973 319.2 Z" fill-rule="evenodd" clip-path="url(#clipPath2)" stroke="none"/>
    </g>
    <g text-rendering="geometricPrecision" stroke-miterlimit="1.45" shape-rendering="geometricPrecision" transform="matrix(1,0,0,1,-286,-74)" stroke-linecap="butt">
      <path fill="none" d="M540.3173 287.8 L672.4373 287.8 L687.1173 319.2 L672.4373 350.6 L540.3173 350.6 L554.9973 319.2 Z" fill-rule="evenodd" clip-path="url(#clipPath2)"/>
      <text x="557.2989" font-size="10px" y="310.8773" clip-path="url(#clipPath2)" font-family="sans-serif" stroke="none" xml:space="preserve">Establish an observability</text>
      <text x="563.4122" font-size="10px" y="323.1282" clip-path="url(#clipPath2)" font-family="sans-serif" stroke="none" xml:space="preserve">strategy, detailing your</text>
      <text x="569.2398" font-size="10px" y="335.3792" clip-path="url(#clipPath2)" font-family="sans-serif" stroke="none" xml:space="preserve">goal and a roadmap</text>
    </g>
    <g fill="silver" text-rendering="geometricPrecision" shape-rendering="geometricPrecision" transform="matrix(1,0,0,1,-286,-74)" stroke="silver">
      <path d="M680.697 287.8 L786.897 287.8 L798.697 319.2 L786.897 350.6 L680.697 350.6 L692.497 319.2 Z" fill-rule="evenodd" clip-path="url(#clipPath2)" stroke="none"/>
    </g>
    <g text-rendering="geometricPrecision" stroke-miterlimit="1.45" shape-rendering="geometricPrecision" transform="matrix(1,0,0,1,-286,-74)" stroke-linecap="butt">
      <path fill="none" d="M680.697 287.8 L786.897 287.8 L798.697 319.2 L786.897 350.6 L680.697 350.6 L692.497 319.2 Z" fill-rule="evenodd" clip-path="url(#clipPath2)"/>
      <text x="704.1184" font-size="10px" y="310.8773" clip-path="url(#clipPath2)" font-family="sans-serif" stroke="none" xml:space="preserve">Learn high-level</text>
      <text x="713.8474" font-size="10px" y="323.1282" clip-path="url(#clipPath2)" font-family="sans-serif" stroke="none" xml:space="preserve">alert design</text>
      <text x="718.5764" font-size="10px" y="335.3792" clip-path="url(#clipPath2)" font-family="sans-serif" stroke="none" xml:space="preserve">principles</text>
    </g>
    <g fill="silver" text-rendering="geometricPrecision" shape-rendering="geometricPrecision" transform="matrix(1,0,0,1,-286,-74)" stroke="silver">
      <path d="M794.1779 287.8 L926.2979 287.8 L940.9779 319.2 L926.2979 350.6 L794.1779 350.6 L808.8578 319.2 Z" fill-rule="evenodd" clip-path="url(#clipPath2)" stroke="none"/>
    </g>
    <g text-rendering="geometricPrecision" stroke-miterlimit="1.45" shape-rendering="geometricPrecision" transform="matrix(1,0,0,1,-286,-74)" stroke-linecap="butt">
      <path fill="none" d="M794.1779 287.8 L926.2979 287.8 L940.9779 319.2 L926.2979 350.6 L794.1779 350.6 L808.8578 319.2 Z" fill-rule="evenodd" clip-path="url(#clipPath2)"/>
      <text x="816.9993" font-size="10px" y="304.7518" clip-path="url(#clipPath2)" font-family="sans-serif" stroke="none" xml:space="preserve">Gather monitoring tips,</text>
      <text x="814.2185" font-size="10px" y="317.0027" clip-path="url(#clipPath2)" font-family="sans-serif" stroke="none" xml:space="preserve">e.g. for frontend, server,</text>
      <text x="825.0559" font-size="10px" y="329.2537" clip-path="url(#clipPath2)" font-family="sans-serif" stroke="none" xml:space="preserve">service/application,</text>
      <text x="822.8416" font-size="10px" y="341.5047" clip-path="url(#clipPath2)" font-family="sans-serif" stroke="none" xml:space="preserve">network, or security.</text>
    </g>
    <g fill="silver" text-rendering="geometricPrecision" shape-rendering="geometricPrecision" transform="matrix(1,0,0,1,-286,-74)" stroke="silver">
      <path d="M514.8541 459.8 L646.9741 459.8 L661.6541 491.2 L646.9741 522.6 L514.8541 522.6 L529.5341 491.2 Z" fill-rule="evenodd" clip-path="url(#clipPath2)" stroke="none"/>
    </g>
    <g text-rendering="geometricPrecision" stroke-miterlimit="1.45" shape-rendering="geometricPrecision" transform="matrix(1,0,0,1,-286,-74)" stroke-linecap="butt">
      <path fill="none" d="M514.8541 459.8 L646.9741 459.8 L661.6541 491.2 L646.9741 522.6 L514.8541 522.6 L529.5341 491.2 Z" fill-rule="evenodd" clip-path="url(#clipPath2)"/>
      <text x="541.279" font-size="10px" y="476.7518" clip-path="url(#clipPath2)" font-family="sans-serif" stroke="none" xml:space="preserve">Understand available</text>
      <text x="535.1633" font-size="10px" y="489.0027" clip-path="url(#clipPath2)" font-family="sans-serif" stroke="none" xml:space="preserve">tooling (e.g. Kubernetes</text>
      <text x="558.2346" font-size="10px" y="501.2537" clip-path="url(#clipPath2)" font-family="sans-serif" stroke="none" xml:space="preserve">operator) and</text>
      <text x="535.173" font-size="10px" y="513.5047" clip-path="url(#clipPath2)" font-family="sans-serif" stroke="none" xml:space="preserve">surrounding eco system</text>
    </g>
    <g fill="silver" text-rendering="geometricPrecision" shape-rendering="geometricPrecision" transform="matrix(1,0,0,1,-286,-74)" stroke="silver">
      <path d="M656.7147 459.8 L788.8347 459.8 L803.5146 491.2 L788.8347 522.6 L656.7147 522.6 L671.3947 491.2 Z" fill-rule="evenodd" clip-path="url(#clipPath2)" stroke="none"/>
    </g>
    <g text-rendering="geometricPrecision" stroke-miterlimit="1.45" shape-rendering="geometricPrecision" transform="matrix(1,0,0,1,-286,-74)" stroke-linecap="butt">
      <path fill="none" d="M656.7147 459.8 L788.8347 459.8 L803.5146 491.2 L788.8347 522.6 L656.7147 522.6 L671.3947 491.2 Z" fill-rule="evenodd" clip-path="url(#clipPath2)"/>
      <text x="680.9203" font-size="10px" y="482.8773" clip-path="url(#clipPath2)" font-family="sans-serif" stroke="none" xml:space="preserve">Re-learn configuration</text>
      <text x="675.9374" font-size="10px" y="495.1282" clip-path="url(#clipPath2)" font-family="sans-serif" stroke="none" xml:space="preserve">of Prom. / Alertm. / Graf.</text>
      <text x="676.1937" font-size="10px" y="507.3792" clip-path="url(#clipPath2)" font-family="sans-serif" stroke="none" xml:space="preserve">using native K8s objects</text>
      <rect stroke-linecap="square" x="1058.731" y="351.0852" clip-path="url(#clipPath2)" width="33.3554" height="4.4147" stroke="none" stroke-miterlimit="10"/>
      <rect fill="none" x="1058.731" width="33.3554" height="4.4147" y="351.0852" clip-path="url(#clipPath2)"/>
      <path fill="none" d="M328.9339 222.3047 L365.5445 175.6281" clip-path="url(#clipPath2)"/>
      <path d="M370.4817 169.3333 L359.1417 175.6897 L364.9273 176.4149 L367.0101 181.8612 Z" clip-path="url(#clipPath2)" stroke="none"/>
      <path fill="none" d="M336.5577 253.8889 L404.3126 285.1245" clip-path="url(#clipPath2)"/>
      <path d="M411.5778 288.4738 L402.7733 278.9092 L403.4045 284.7059 L398.5867 287.9906 Z" clip-path="url(#clipPath2)" stroke="none"/>
      <path fill="none" d="M940.9297 319.2 L1065.894 319.2 L1065.894 344.5879 L1065.894 351.0684" clip-path="url(#clipPath2)"/>
      <path d="M1065.894 351.0684 L1070.894 339.0684 L1065.894 342.0684 L1060.894 339.0684 Z" clip-path="url(#clipPath2)" stroke="none"/>
      <path fill="none" d="M1022.3272 169.2931 L1082.1238 319.2 L1082.1238 343.08" clip-path="url(#clipPath2)"/>
      <path d="M1082.1238 351.08 L1087.1238 339.08 L1082.1238 342.08 L1077.1238 339.08 Z" clip-path="url(#clipPath2)" stroke="none"/>
      <path fill="none" d="M1075.4087 355.4999 L1075.4087 413.3111 L382.6583 413.3111 L382.6583 491.2 L521.5519 491.2" clip-path="url(#clipPath2)"/>
      <path d="M529.5519 491.2 L517.5519 486.2 L520.5519 491.2 L517.5519 496.2 Z" clip-path="url(#clipPath2)" stroke="none"/>
    </g>
  </g>
</svg>
